<svg width="39" height="38" viewBox="0 0 39 38" fill="none" xmlns="http://www.w3.org/2000/svg">
<path d="M25.0774 13.4052C25.0176 13.4646 24.1328 12.586 22.4108 11.1257C21.5499 10.4014 20.4856 9.52282 19.1941 8.58487C17.7374 7.52237 16.2025 6.56988 14.6023 5.73542C13.6789 5.26474 12.7192 4.86773 11.7324 4.54814C10.6978 4.17299 9.60514 3.98011 8.50371 3.97824C7.95975 3.97767 7.42324 4.10373 6.93722 4.34629C6.46124 4.5918 6.08221 4.98906 5.86101 5.47422C5.62923 6.0056 5.51894 6.5814 5.53812 7.16016C5.54851 7.78444 5.62874 8.40563 5.7773 9.01231C6.09763 10.2988 6.56295 11.5454 7.16443 12.7285C7.79421 13.9853 8.50105 15.2025 9.28097 16.3734C12.6302 21.2849 16.8236 25.573 21.6694 29.0416C22.8146 29.8559 24.0131 30.5936 25.2568 31.25C26.4308 31.8877 27.6746 32.3897 28.9638 32.7459C29.5685 32.9131 30.1902 33.0126 30.8173 33.0428C31.3966 33.076 31.9762 32.9828 32.5153 32.7697C33.0206 32.5703 33.4423 32.206 33.7111 31.7367C33.9666 31.2604 34.1097 30.7326 34.1296 30.1933C34.1648 29.0972 34.0028 28.0036 33.6513 26.9639C33.3258 25.9739 32.9261 25.0095 32.4555 24.0788C31.6575 22.4675 30.7423 20.9159 29.7171 19.4366C28.8083 18.1306 27.9713 17.062 27.2538 16.1716C25.8428 14.4263 24.9818 13.5121 25.0416 13.4527C25.1014 13.3933 25.3047 13.6308 25.7471 14.0463C26.1896 14.4619 26.7994 15.0793 27.5527 15.9222C28.4792 16.9424 29.3533 18.0084 30.1715 19.116C31.267 20.5881 32.2426 22.1444 33.0893 23.7701C33.5758 24.7298 33.9953 25.7216 34.3449 26.7383C34.7463 27.8824 34.9366 29.089 34.9069 30.3002C34.8944 30.9678 34.7222 31.623 34.4047 32.2116C34.061 32.8426 33.5134 33.3402 32.8501 33.6245C32.1922 33.8974 31.4818 34.0231 30.7694 33.9926C30.0708 33.9712 29.3769 33.8716 28.7007 33.6957C27.3432 33.3284 26.0315 32.8106 24.7905 32.1523C23.494 31.4457 22.2475 30.6524 21.0596 29.7777C16.092 26.2594 11.8093 21.8745 8.42 16.8365C7.61432 15.6356 6.89121 14.3822 6.25561 13.0847C5.63553 11.8313 5.15824 10.5132 4.83261 9.15478C4.66994 8.48216 4.58966 7.7925 4.59347 7.10078C4.5742 6.3922 4.72158 5.68894 5.02394 5.04682C5.33066 4.39508 5.84852 3.86418 6.49478 3.53895C7.09791 3.24659 7.76081 3.09627 8.43197 3.09967C9.63436 3.11183 10.8249 3.33698 11.9476 3.76454C12.9607 4.1378 13.944 4.58628 14.8893 5.10616C16.4991 5.99156 18.0347 7.00399 19.4811 8.1337C20.7606 9.13101 21.801 10.0452 22.6261 10.8288C23.4512 11.6124 24.061 12.2417 24.4556 12.681C24.8502 13.1203 25.1014 13.3815 25.0774 13.4052Z" fill="#455A64"/>
<path d="M13.6128 16.254C13.6846 16.254 13.3378 17.4413 12.8834 19.5547C12.6562 20.6232 12.4051 21.9292 12.2018 23.4489C11.9699 25.1683 11.874 26.9031 11.9148 28.6373C11.9379 29.6374 12.0419 30.6339 12.2257 31.6174C12.3994 32.6618 12.7599 33.667 13.29 34.5856C13.5607 35.0356 13.9282 35.4207 14.3662 35.7135C14.8031 35.9948 15.3166 36.1358 15.837 36.1172C16.406 36.1015 16.9649 35.9638 17.4753 35.7135C18.0164 35.4383 18.5223 35.0995 18.982 34.7043C19.9597 33.8637 20.8383 32.9158 21.6008 31.8786C22.4072 30.7851 23.1383 29.6387 23.7891 28.4474C26.5058 23.3851 28.2687 17.8728 28.9908 12.1817C29.1465 10.8379 29.2143 9.48554 29.1941 8.13306C29.1748 6.84847 29.0103 5.57009 28.7038 4.32192C28.5481 3.7392 28.3317 3.17419 28.0581 2.63601C27.8051 2.13789 27.446 1.70033 27.0058 1.35373C26.5945 1.03438 26.0925 0.851616 25.5708 0.831326C25.0439 0.821361 24.5214 0.926767 24.0402 1.14003C23.0751 1.58545 22.1967 2.19635 21.4453 2.94467C20.7251 3.64803 20.0614 4.40624 19.4603 5.21238C18.4031 6.59546 17.4594 8.06051 16.6382 9.59342C15.9207 10.9469 15.3707 12.1579 14.9402 13.1553C14.0792 15.1617 13.6846 16.3015 13.6128 16.2778C13.623 15.9809 13.6837 15.6879 13.7922 15.4111C13.9477 14.853 14.1988 14.0457 14.5695 13.0365C14.9402 12.0273 15.4544 10.7688 16.136 9.36784C16.9102 7.77134 17.8182 6.24228 18.8504 4.79682C19.4519 3.94746 20.1282 3.15282 20.8713 2.42227C21.6753 1.58085 22.6278 0.892759 23.6815 0.39204C24.271 0.127052 24.9118 -0.00665813 25.5589 0.000255031C26.2583 0.0177252 26.9351 0.250004 27.496 0.665126C28.0408 1.08494 28.4892 1.61514 28.8114 2.22045C29.1301 2.81549 29.3789 3.4449 29.5528 4.09633C29.8929 5.40817 30.0775 6.75496 30.1029 8.10933C30.1439 9.50882 30.0839 10.9094 29.9235 12.3004C29.2262 18.1257 27.4204 23.7663 24.6022 28.9223C23.9267 30.1617 23.1634 31.352 22.3182 32.4841C21.5096 33.5747 20.5744 34.567 19.532 35.4404C19.0148 35.8718 18.449 36.2424 17.846 36.5446C17.231 36.8615 16.5532 37.0399 15.8609 37.067C15.1653 37.0834 14.4811 36.8887 13.8998 36.509C13.3664 36.1397 12.9181 35.6622 12.5845 35.108C12.018 34.0953 11.6412 32.9891 11.4724 31.843C11.2938 30.8196 11.2058 29.7828 11.2093 28.7442C11.2012 26.9697 11.3492 25.1979 11.6517 23.4489C11.8675 22.1373 12.1509 20.8375 12.5007 19.5547C12.7877 18.498 13.0628 17.6907 13.2541 17.1801C13.3155 16.8522 13.437 16.5383 13.6128 16.254Z" fill="#455A64"/>
<path d="M17.5326 10.783C17.5326 10.8661 16.3368 11.1748 14.3159 11.911C13.2876 12.279 12.0439 12.7539 10.6209 13.3832C9.02666 14.0931 7.49128 14.9267 6.02908 15.8764C5.18042 16.4165 4.38026 17.0282 3.63749 17.7048C2.83287 18.3963 2.16395 19.2295 1.66443 20.1625C1.41999 20.6255 1.28118 21.1362 1.25787 21.6585C1.2473 22.1793 1.40209 22.6902 1.7003 23.1188C2.0096 23.5751 2.41828 23.9565 2.8961 24.2348C3.41694 24.5434 3.97033 24.7942 4.54631 24.9828C5.78354 25.3587 7.05882 25.5976 8.34893 25.6952C9.71065 25.7847 11.0769 25.7847 12.4386 25.6952C15.3164 25.5271 18.1715 25.0858 20.9646 24.3773C23.7634 23.6843 26.49 22.7302 29.108 21.5279C30.3447 20.9516 31.5429 20.2973 32.6954 19.5689C33.786 18.8967 34.7934 18.0998 35.6968 17.1943C36.122 16.7625 36.4916 16.28 36.7969 15.7577C37.0938 15.286 37.2816 14.7548 37.347 14.2024C37.4015 13.689 37.2972 13.1714 37.048 12.7183C36.779 12.2506 36.412 11.8458 35.9718 11.531C35.0786 10.9652 34.0903 10.5631 33.0541 10.3437C32.076 10.1039 31.0804 9.94113 30.0766 9.85695C28.3334 9.72117 26.5822 9.72117 24.839 9.85695C23.2964 9.97568 21.9691 10.1419 20.8809 10.2962C18.7285 10.6287 17.5446 10.9018 17.5207 10.8186C17.7827 10.6777 18.065 10.5776 18.3577 10.5218C18.9078 10.3556 19.7329 10.1419 20.8211 9.9163C21.9093 9.69072 23.2127 9.47704 24.7911 9.31082C26.5664 9.12376 28.3544 9.08404 30.1363 9.19208C31.1798 9.25429 32.216 9.40524 33.2335 9.64325C34.3791 9.87302 35.4706 10.3162 36.4501 10.9493C36.9906 11.3042 37.4441 11.7748 37.7775 12.3265C38.132 12.9245 38.2868 13.6185 38.2199 14.3092C38.1586 14.9936 37.942 15.6552 37.5862 16.2445C37.2499 16.8219 36.8487 17.3597 36.3904 17.8473C35.4435 18.8295 34.384 19.6982 33.2335 20.4356C32.0536 21.2015 30.8231 21.8877 29.5504 22.4895C26.862 23.7329 24.0588 24.715 21.1798 25.4221C18.3248 26.1451 15.4049 26.5866 12.4625 26.74C11.0555 26.8177 9.64478 26.7939 8.24131 26.6688C6.87899 26.5621 5.53426 26.295 4.23539 25.8733C3.59012 25.6656 2.97198 25.3827 2.39389 25.0303C1.80585 24.6721 1.30055 24.1947 0.911074 23.6294C0.531391 23.0515 0.339409 22.3718 0.361018 21.6822C0.391087 21.0345 0.566769 20.4016 0.875202 19.8301C1.43939 18.8179 2.18505 17.9166 3.07546 17.1706C3.86517 16.4871 4.70895 15.8677 5.59861 15.3184C7.12365 14.3961 8.7236 13.6018 10.3818 12.9439C11.6218 12.4371 12.887 11.9933 14.1725 11.6141C15.2248 11.3054 16.0618 11.1036 16.6239 10.9849C16.9138 10.8693 17.2207 10.8012 17.5326 10.783Z" fill="#455A64"/>
<path d="M23.5599 17.6303C23.7136 18.2409 23.6815 18.883 23.4677 19.4754C23.2539 20.0678 22.868 20.584 22.3587 20.9586C21.8494 21.3333 21.2397 21.5496 20.6066 21.5802C19.9735 21.6108 19.3455 21.4543 18.802 21.1305C18.2585 20.8067 17.8239 20.3302 17.5532 19.7612C17.2824 19.1922 17.1877 18.5562 17.281 17.9338C17.3743 17.3113 17.6514 16.7303 18.0772 16.2642C18.5031 15.798 19.0586 15.4678 19.6735 15.3152C20.4979 15.1138 21.3691 15.2441 22.0971 15.6778C22.8251 16.1115 23.3509 16.8133 23.5599 17.6303Z" fill="#455A64"/>
</svg>
