<svg width="366" height="424" viewBox="0 0 366 424" fill="none" xmlns="http://www.w3.org/2000/svg">
<path d="M134.695 161.341C133.897 156.908 130.582 129.791 152.532 130.144C177.999 130.557 180.766 160.089 171.362 166.05C161.959 172.011 145.559 154.564 153.537 138.998C161.439 123.611 179.541 121.977 190.091 105.629" stroke="#263238" stroke-linecap="round" stroke-linejoin="round" stroke-dasharray="2.99 2.99"/>
<path d="M187.71 61.5639C186.957 63.1731 185.47 64.2672 184.171 65.4088C182.872 66.5504 181.695 67.7403 181.423 69.4355C181.144 71.1878 182.048 72.7892 183.325 73.9118C184.759 75.1751 186.535 75.7825 188.376 76.1638C190.357 76.5745 192.414 76.7798 194.277 77.6192C195.924 78.3613 197.256 79.6343 198.16 81.1966C200.033 84.4313 200.122 88.5016 198.942 91.991C197.585 96.0106 194.89 99.3897 192.165 102.567C191.819 102.971 191.471 103.372 191.122 103.773C190.901 104.028 191.32 104.34 191.539 104.087C194.302 100.908 197.119 97.6379 198.824 93.7368C199.609 91.9435 200.133 90.0382 200.222 88.0766C200.305 86.2413 200.054 84.3832 199.414 82.6583C198.773 80.9334 197.795 79.4616 196.419 78.3356C194.905 77.0951 193.039 76.5315 191.151 76.1578C189.262 75.784 187.212 75.5736 185.433 74.6925C183.914 73.9411 182.371 72.6491 181.981 70.917C181.591 69.1803 182.539 67.6763 183.737 66.513C184.995 65.2916 186.489 64.2849 187.538 62.858C187.792 62.5151 188.011 62.1454 188.191 61.7589C188.334 61.4543 187.849 61.2589 187.707 61.5635L187.71 61.5639Z" fill="black"/>
<path d="M188.354 62.812L185.018 22.3162L157.103 22.3744L150.107 49.5037L188.354 62.812Z" fill="#FDBC05"/>
<path d="M157.177 22.3109L157.012 22.4395L188.263 62.8771L188.428 62.7486L157.177 22.3109Z" fill="#2F2E43"/>
<path d="M150.197 49.5526L150.012 49.4561C150.041 49.4015 152.896 43.8785 158.608 37.7924C163.881 32.1753 172.742 24.9117 184.994 22.2133L185.038 22.4175C172.84 25.1032 164.017 32.3372 158.763 37.9314C153.069 43.9959 150.222 49.496 150.196 49.551L150.197 49.5526Z" fill="#2F2E43"/>
<path d="M72.2746 158.285L69.8301 171.105L82.0174 174.537L80.5032 160.85L72.2746 158.285Z" fill="#A0616A"/>
<path d="M217.945 249.592H92.2552C78.0019 249.592 66.4473 261.134 66.4473 275.372V397.122C66.4473 411.36 78.0018 422.902 92.2551 422.902H217.945C232.199 422.902 243.753 411.36 243.753 397.122V275.372C243.753 261.134 232.199 249.592 217.945 249.592Z" fill="#F5F5F5"/>
<path d="M217.945 423.511H92.255C77.6876 423.511 65.8359 411.672 65.8359 397.121V275.371C65.8359 260.82 77.6876 248.98 92.255 248.98H217.945C232.513 248.98 244.364 260.82 244.364 275.371V397.121C244.364 411.672 232.512 423.511 217.945 423.511ZM92.255 250.201C78.3614 250.201 67.0582 261.493 67.0582 275.371V397.121C67.0582 410.999 78.3614 422.29 92.255 422.29H217.945C231.839 422.29 243.142 410.999 243.142 397.121V275.371C243.142 261.493 231.839 250.201 217.945 250.201L92.255 250.201Z" fill="#3F3D56"/>
<path d="M227.049 302.374H176.529C174.386 302.374 172.643 300.632 172.643 298.491C172.643 296.351 174.386 294.609 176.529 294.609H227.049C229.192 294.609 230.936 296.351 230.936 298.491C230.936 300.632 229.192 302.374 227.049 302.374Z" fill="#C5D7FF"/>
<path d="M179.655 332.902H130.546C129.308 332.902 128.301 331.895 128.301 330.659C128.301 329.422 129.308 328.416 130.546 328.416H179.655C180.893 328.416 181.9 329.422 181.9 330.659C181.9 331.895 180.893 332.902 179.655 332.902Z" fill="#C5D7FF"/>
<path d="M110.244 257.93H82.2072C82.1025 257.93 82.0176 258.014 82.0176 258.119V261.38C82.0176 261.484 82.1025 261.569 82.2072 261.569H110.244C110.349 261.569 110.434 261.484 110.434 261.38V258.119C110.434 258.014 110.349 257.93 110.244 257.93Z" fill="#C5D7FF"/>
<path d="M204.682 261.569C206.292 261.569 207.597 260.265 207.597 258.657C207.597 257.05 206.292 255.746 204.682 255.746C203.072 255.746 201.768 257.05 201.768 258.657C201.768 260.265 203.072 261.569 204.682 261.569Z" fill="#3F3D56"/>
<path d="M212.698 261.569C214.307 261.569 215.612 260.265 215.612 258.657C215.612 257.05 214.307 255.746 212.698 255.746C211.088 255.746 209.783 257.05 209.783 258.657C209.783 260.265 211.088 261.569 212.698 261.569Z" fill="#3F3D56"/>
<path d="M220.711 261.569C222.321 261.569 223.626 260.265 223.626 258.657C223.626 257.05 222.321 255.746 220.711 255.746C219.102 255.746 217.797 257.05 217.797 258.657C217.797 260.265 219.102 261.569 220.711 261.569Z" fill="#3F3D56"/>
<path d="M91.9492 344.908C91.9492 345.311 92.2731 345.635 92.6765 345.635H217.524C217.927 345.635 218.251 345.311 218.251 344.908C218.251 344.505 217.927 344.182 217.524 344.182H92.6765C92.2731 344.182 91.9492 344.505 91.9492 344.908Z" fill="#3F3D56"/>
<path d="M130.024 165.718C132.682 163.524 135.97 163.116 137.367 164.806C138.765 166.496 137.742 169.644 135.083 171.838C134.033 172.729 132.785 173.356 131.442 173.666L120.063 182.819L115.877 177.394L127.539 168.946C128.098 167.687 128.95 166.58 130.024 165.718Z" fill="#A0616A"/>
<path d="M64.2544 186.37C64.2486 185.965 64.2524 182.434 66.8693 180.202C69.8754 177.639 74.1172 178.676 75.6049 179.04C79.0417 179.881 79.3235 181.354 82.551 182.867C88.5893 185.698 81.0236 184.249 84.6165 183.341C85.8602 183.027 103.752 181.787 108.206 179.049C116.868 173.724 122.77 170.494 122.77 170.494L126.628 178.202C126.628 178.202 121.049 185.951 113.197 191.692C105.143 197.581 101.116 200.525 94.9955 201.663C94.4685 201.761 81.5065 203.971 71.0667 196.18C68.6854 194.403 64.3224 191.147 64.2544 186.37Z" fill="#E6E6E6"/>
<path d="M76.2235 166.766C83.6464 166.766 89.6639 160.755 89.6639 153.34C89.6639 145.925 83.6464 139.914 76.2235 139.914C68.8006 139.914 62.7832 145.925 62.7832 153.34C62.7832 160.755 68.8006 166.766 76.2235 166.766Z" fill="#A0616A"/>
<path d="M181.483 243.542L167.641 229.389L160.496 236.834L170.809 250.405L181.038 251.573L181.483 243.542Z" fill="#A0616A"/>
<path d="M102.446 217.001C103.255 217.069 105.828 217.584 108.287 216.232C109.965 215.31 110.826 213.938 111.117 213.502C114.723 208.091 128.566 199.654 140.989 199.134C143.803 199.017 145.654 199.343 147.338 200.219C149.724 201.462 150.677 203.242 153.706 207.412C155.362 209.693 157.196 211.842 158.872 214.109C168.688 227.378 172.409 228.42 172.029 232.674C171.607 237.394 166.511 241.872 163.124 241.355C161.737 241.144 161.2 240.18 159.347 238.23C153.913 232.511 151.665 233.567 147.797 229.187C143.28 224.073 143.871 219.833 141.515 219.669C139.33 219.517 138.401 223.135 133.736 227.94C131.601 230.139 130.081 231.148 125.45 234.357C107.415 246.855 107.127 247.734 103.488 248.73C101.895 249.166 90.5931 252.262 86.5669 247.336C80.2665 239.628 95.1508 216.396 102.446 217.001Z" fill="#2F2E41"/>
<path d="M177.251 246.741C178.269 246.284 179.46 245.75 179.843 244.522C180.102 243.692 179.953 242.667 179.417 241.959C178.799 241.143 177.884 241.035 177.921 240.89C177.978 240.67 180.141 240.756 182.515 241.595C182.963 241.753 184.993 242.494 187.575 244.508C189.644 246.121 189.366 246.445 190.663 247.375C194.646 250.231 198.381 247.98 200.536 250.658C201.367 251.692 201.722 253.159 201.372 254.346C200.669 256.729 197.251 257.549 195.383 257.972C190.884 258.992 187.479 258.159 183.924 257.561C171.831 255.525 165.037 257.379 164.128 254.581C163.956 254.051 164.235 254.096 165.168 250.209C166.088 246.373 166.058 245.32 166.842 245.013C168.021 244.55 168.813 246.654 171.785 247.374C174.419 248.011 176.592 247.037 177.251 246.741Z" fill="#2F2E41"/>
<path d="M156.874 289.843L153.377 270.367L143.279 272.52L144.184 289.534L151.991 296.239L156.874 289.843Z" fill="#A0616A"/>
<path d="M106.395 223.547C107.027 224.057 108.867 225.926 111.661 226.187C113.568 226.365 115.051 225.713 115.537 225.516C121.563 223.061 137.76 223.845 148.332 230.384C150.726 231.865 152.075 233.173 152.975 234.842C154.251 237.209 154.039 239.217 154.201 244.366C154.289 247.183 154.598 249.99 154.711 252.806C155.374 269.292 157.868 272.241 155.162 275.548C152.159 279.217 145.425 280.063 142.913 277.736C141.885 276.783 141.982 275.684 141.545 273.031C140.263 265.251 137.809 264.864 137.071 259.069C136.208 252.304 139.081 249.127 137.223 247.67C135.501 246.319 132.699 248.791 126.137 250.15C123.135 250.772 121.31 250.754 115.674 250.812C93.725 251.037 92.9931 251.603 89.4212 250.386C87.8584 249.853 76.7665 246.075 76.204 239.74C75.3238 229.828 100.699 218.954 106.395 223.547Z" fill="#2F2E41"/>
<path d="M151.575 290.117C152.674 290.31 153.959 290.536 154.966 289.735C155.647 289.193 156.1 288.262 156.055 287.375C156.002 286.353 155.306 285.751 155.418 285.652C155.588 285.501 157.33 286.786 158.823 288.812C159.105 289.194 160.368 290.946 161.373 294.061C162.178 296.556 161.765 296.668 162.316 298.165C164.006 302.762 168.362 302.995 168.639 306.42C168.746 307.741 168.215 309.154 167.258 309.94C165.337 311.517 162.048 310.279 160.264 309.581C155.969 307.901 153.619 305.302 151.013 302.813C142.152 294.346 135.488 292.068 136.309 289.243C136.464 288.708 136.67 288.902 139.626 286.209C142.544 283.551 143.111 282.662 143.933 282.848C145.169 283.127 144.642 285.312 146.696 287.574C148.517 289.579 150.863 289.992 151.575 290.117Z" fill="#2F2E41"/>
<path d="M78.0551 155.907C78.5783 154.037 77.9211 153.356 78.5909 152.517C78.591 152.517 78.8605 152.179 81.2704 151.268C80.5593 147.147 81.0917 146.45 81.0917 146.45C81.7053 145.647 82.9344 145.453 83.7711 145.558C85.5408 145.78 85.8541 147.378 86.9865 147.342C88.5507 147.293 90.4268 144.165 89.8445 141.454C89.3695 139.242 87.3213 137.6 86.8078 137.885C86.2988 138.167 84.4662 136.921 83.7712 137.171C83.2965 137.342 81.0624 137.115 80.5559 137.35C80.0026 137.606 78.4184 139.202 78.2669 139.001C77.2143 137.603 77.2367 137.115 76.626 136.814C75.5439 136.28 74.3675 137.267 72.339 138.242C68.1652 140.247 66.9431 139.051 65.0152 140.74C64.0413 141.593 63.5191 143.224 62.5144 146.45C61.1093 150.962 60.4068 153.218 61.0854 155.372C61.7774 157.569 62.7965 157.09 64.3007 160.19C65.9751 163.64 65.398 165.645 66.9801 166.435C68.2029 167.046 70.168 166.657 70.9099 165.543C72.1802 163.635 68.8969 161.055 70.0168 158.048C70.7042 156.203 72.8248 154.804 74.1252 155.193C75.5956 155.634 75.7039 158.268 76.626 158.227C77.4157 158.192 77.9639 156.233 78.0551 155.907Z" fill="#2F2E41"/>
<path d="M67.8736 168.755C70.624 165.675 81.8269 168.863 82.8784 173.752C83.3109 175.762 81.7143 176.611 82.1639 178.926C82.8215 182.312 86.5451 182.082 89.309 185.528C93.2329 190.422 89.1905 195.206 93.5961 203.372C94.5375 205.117 95.331 206.588 96.99 208.012C100.797 211.278 104.34 210.158 106.279 213.186C107.728 215.451 107.133 218.242 106.993 218.896C106.421 221.578 104.87 222.231 103.778 224.428C101.96 228.083 104.018 230.767 104.135 235.134C104.281 240.599 101.374 248.173 95.561 250.658C89.0298 253.45 81.1527 248.826 77.3409 244.235C75.0664 241.495 74.4062 238.967 73.4111 235.848C68.9639 221.906 66.4515 223.167 63.0507 212.116C59.1628 199.482 58.3985 184.681 63.0507 179.997C63.6673 179.376 65.3642 177.941 66.4446 175.357C67.8984 171.881 66.6425 170.134 67.8736 168.755Z" fill="#E6E6E6"/>
<path d="M108.513 240.466C110.645 243.172 110.976 246.465 109.251 247.82C107.527 249.176 104.401 248.08 102.268 245.372C101.401 244.303 100.803 243.041 100.525 241.693L91.6348 230.111L96.2284 226.611L105.341 237.907C106.588 238.495 107.675 239.372 108.513 240.466Z" fill="#A0616A"/>
<path d="M75.9543 180.495C76.3498 180.407 79.8111 179.69 82.5322 181.794C85.658 184.21 85.5066 188.57 85.4535 190.099C85.3308 193.632 83.9451 194.208 83.1207 197.673C81.5783 204.155 84.5156 210.18 86.1384 213.508C86.7001 214.66 88.5047 218.186 92.0969 221.982C99.0834 229.366 105.317 233.252 105.317 233.252L98.6204 239.198C98.6204 239.198 87.9532 235.95 80.7251 229.443C73.3108 222.768 61.9089 199.152 59.5452 193.399C59.3417 192.903 62.225 200.958 67.7304 189.159C68.9861 186.467 71.2869 181.536 75.9543 180.495Z" fill="#E6E6E6"/>
<path d="M299.665 392.126C300.803 392.599 303.581 392.539 303.586 392.539C303.592 392.539 302.986 390.803 302.934 390.698C302.323 389.479 300.391 387.469 298.825 387.673C298.564 387.713 298.316 387.804 298.096 387.942C297.875 388.079 297.688 388.26 297.545 388.471C297.403 388.682 297.309 388.92 297.269 389.168C297.23 389.416 297.246 389.67 297.316 389.912C297.577 390.942 298.694 391.723 299.665 392.126Z" fill="#263238"/>
<path d="M300.627 399.806C301.807 399.97 304.282 399.283 304.486 399.229C304.895 400.586 305.397 401.916 305.989 403.21C306.337 403.96 306.701 404.709 307.08 405.459C306.856 405.141 306.647 404.862 306.616 404.822C305.692 403.802 303.269 402.334 301.812 402.941C301.573 403.046 301.359 403.198 301.186 403.386C301.012 403.575 300.881 403.797 300.803 404.036C300.725 404.276 300.7 404.529 300.731 404.778C300.762 405.028 300.847 405.268 300.982 405.484C301.504 406.415 302.81 406.877 303.854 407.022C304.898 407.166 307.049 406.629 307.608 406.474C307.759 406.763 307.9 407.047 308.052 407.33C308.772 408.694 309.493 410.052 310.14 411.406C310.375 411.903 310.589 412.361 310.803 412.839C310.605 412.56 310.432 412.341 310.401 412.292C309.477 411.272 307.054 409.803 305.598 410.411C305.358 410.515 305.145 410.666 304.971 410.854C304.797 411.043 304.667 411.264 304.589 411.503C304.51 411.743 304.486 411.995 304.517 412.244C304.547 412.493 304.633 412.733 304.767 412.949C305.29 413.884 306.595 414.347 307.639 414.491C308.683 414.636 310.626 414.143 311.294 413.969C311.498 414.466 311.701 414.964 311.879 415.462C311.988 415.8 312.124 416.113 312.213 416.457C312.302 416.8 312.411 417.134 312.51 417.452C312.672 418.099 312.845 418.766 312.986 419.398C313.085 419.836 313.174 420.259 313.268 420.682C313.038 420.184 312.573 419.278 312.521 419.189C311.769 418.044 309.608 416.263 308.072 416.631C307.819 416.701 307.585 416.82 307.383 416.981C307.182 417.143 307.018 417.343 306.903 417.569C306.788 417.794 306.723 418.041 306.714 418.291C306.706 418.542 306.752 418.792 306.851 419.025C307.232 420.02 308.417 420.667 309.461 420.96C310.573 421.289 313.038 420.99 313.346 420.96C313.492 421.662 313.628 422.349 313.748 422.996C313.837 423.493 313.92 423.936 313.993 424.374H314.98C314.886 423.877 314.782 423.379 314.672 422.832C314.526 422.115 314.354 421.339 314.15 420.582C314.893 420.29 315.618 419.957 316.322 419.587C317.131 420.428 319.209 421.403 319.455 421.533C319.167 422.195 318.886 422.837 318.614 423.439C318.468 423.757 318.327 424.056 318.186 424.354H319.23C319.308 424.165 319.392 423.981 319.476 423.787C319.768 423.115 320.065 422.389 320.358 421.642C320.655 421.702 323.099 422.175 324.232 421.931C325.276 421.707 326.514 421.155 326.973 420.179C327.094 419.953 327.163 419.705 327.175 419.452C327.187 419.198 327.142 418.945 327.043 418.709C326.944 418.474 326.793 418.261 326.601 418.086C326.409 417.91 326.18 417.775 325.929 417.691C324.425 417.193 322.133 418.836 321.292 419.92C321.245 419.985 320.77 420.737 320.509 421.219C320.629 420.911 320.749 420.617 320.864 420.299C321.105 419.677 321.329 419.05 321.564 418.373C321.668 418.041 321.773 417.709 321.877 417.377C321.992 417.049 322.065 416.686 322.159 416.332C322.368 415.516 322.53 414.675 322.681 413.844C323.256 414.043 325.292 414.72 326.362 414.65C327.433 414.581 328.738 414.213 329.349 413.317C329.5 413.111 329.604 412.878 329.655 412.631C329.705 412.384 329.7 412.131 329.641 411.886C329.581 411.641 329.468 411.411 329.309 411.211C329.15 411.011 328.948 410.845 328.717 410.724C327.307 410.032 324.785 411.311 323.783 412.262C323.72 412.322 323.078 413.078 322.739 413.501C322.822 413.003 322.906 412.506 322.974 411.963C323.167 410.47 323.318 408.948 323.496 407.43C323.543 406.962 323.595 406.499 323.647 406.036C323.851 406.111 326.258 406.967 327.448 406.887C328.492 406.818 329.824 406.444 330.435 405.554C330.586 405.348 330.69 405.114 330.741 404.868C330.791 404.621 330.786 404.367 330.727 404.123C330.667 403.878 330.554 403.648 330.395 403.448C330.236 403.248 330.034 403.082 329.803 402.961C328.398 402.269 325.871 403.543 324.869 404.499C324.791 404.568 323.872 405.663 323.652 405.952C323.767 404.932 323.893 403.916 324.054 402.921C324.268 401.577 324.573 400.247 324.968 398.94C325.062 398.975 327.579 399.881 328.79 399.796C329.834 399.726 331.166 399.358 331.777 398.462C331.928 398.258 332.033 398.025 332.083 397.779C332.134 397.533 332.13 397.279 332.07 397.035C332.011 396.791 331.899 396.561 331.74 396.361C331.582 396.161 331.38 395.995 331.15 395.875C329.74 395.178 327.213 396.457 326.211 397.407C326.132 397.482 325.167 398.661 324.984 398.9C324.984 398.826 325.02 398.746 325.046 398.671C325.479 397.368 326.033 396.104 326.702 394.894C327.062 394.223 327.448 393.6 327.835 392.998C328.284 393.212 330.356 394.173 331.458 394.213C332.56 394.252 333.87 394.023 334.591 393.217C334.764 393.029 334.894 392.807 334.972 392.568C335.05 392.328 335.074 392.075 335.043 391.826C335.012 391.577 334.926 391.337 334.792 391.122C334.657 390.906 334.477 390.72 334.262 390.575C332.941 389.739 330.283 390.744 329.176 391.57C329.119 391.615 328.56 392.142 328.132 392.536C328.315 392.267 328.492 391.988 328.654 391.734C329.317 390.784 329.986 389.953 330.586 389.216C330.926 388.803 331.249 388.435 331.552 388.097C332.106 388.097 334.351 388.022 335.332 387.599C336.314 387.176 337.379 386.37 337.614 385.325C337.677 385.081 337.686 384.828 337.64 384.581C337.593 384.334 337.493 384.1 337.345 383.892C337.198 383.685 337.006 383.509 336.782 383.377C336.558 383.245 336.308 383.159 336.047 383.125C334.481 382.961 332.602 385.021 332.027 386.255C331.975 386.36 331.395 388.112 331.427 388.112H331.458C331.16 388.435 330.847 388.783 330.508 389.172C329.892 389.893 329.203 390.714 328.519 391.66C327.758 392.666 327.061 393.715 326.43 394.8C325.723 396.009 325.132 397.276 324.665 398.587V398.637C324.665 398.194 324.665 396.955 324.639 396.86C324.456 395.521 323.282 393.038 321.721 392.764C321.461 392.726 321.195 392.74 320.941 392.805C320.687 392.871 320.45 392.987 320.246 393.146C320.042 393.304 319.876 393.502 319.757 393.726C319.639 393.95 319.571 394.196 319.559 394.446C319.47 395.506 320.274 396.571 321.063 397.243C321.956 398 324.42 398.736 324.618 398.791C324.176 400.136 323.827 401.507 323.574 402.896C323.423 403.702 323.297 404.519 323.183 405.345C323.183 404.961 323.183 404.618 323.183 404.568C323 403.23 321.825 400.751 320.264 400.473C320.004 400.435 319.738 400.449 319.485 400.515C319.231 400.581 318.995 400.697 318.791 400.856C318.587 401.014 318.421 401.212 318.302 401.436C318.183 401.659 318.115 401.904 318.102 402.155C318.014 403.22 318.823 404.285 319.606 404.952C320.389 405.618 322.499 406.3 323.057 406.469C323.015 406.783 322.968 407.101 322.932 407.415C322.739 408.908 322.556 410.445 322.331 411.923C322.253 412.421 322.154 412.958 322.055 413.466C322.055 413.128 322.055 412.844 322.055 412.799C321.877 411.461 320.697 408.977 319.141 408.704C318.885 408.668 318.625 408.683 318.375 408.748C318.126 408.813 317.893 408.927 317.691 409.081C317.49 409.236 317.324 409.428 317.205 409.647C317.085 409.865 317.014 410.105 316.995 410.351C316.907 411.411 317.716 412.476 318.504 413.148C319.293 413.819 321.193 414.427 321.851 414.64C321.736 415.163 321.621 415.686 321.486 416.183C321.381 416.522 321.308 416.855 321.188 417.178C321.068 417.502 320.964 417.84 320.849 418.174C320.614 418.801 320.374 419.443 320.123 420.045C319.956 420.468 319.784 420.866 319.601 421.264C319.684 420.766 319.831 419.731 319.831 419.642C319.812 418.456 319.476 417.295 318.854 416.268C318.859 416.135 318.85 416.001 318.828 415.87C318.793 415.622 318.704 415.385 318.566 415.173C318.429 414.961 318.246 414.778 318.03 414.637C317.814 414.497 317.57 414.401 317.312 414.356C317.055 414.311 316.79 414.318 316.536 414.377C315.006 414.765 314.035 417.328 313.962 418.671C313.962 418.751 314.009 419.622 314.056 420.164C313.978 419.851 313.905 419.537 313.821 419.214C313.664 418.567 313.482 417.93 313.299 417.223C313.194 416.895 313.085 416.561 312.98 416.228C312.876 415.895 312.73 415.551 312.61 415.208C312.307 414.422 311.957 413.635 311.565 412.849C312.155 412.715 314.254 412.207 315.1 411.59C315.946 410.973 316.828 409.973 316.818 408.908C316.825 408.657 316.776 408.408 316.675 408.176C316.574 407.944 316.423 407.735 316.232 407.563C316.041 407.39 315.815 407.257 315.566 407.174C315.318 407.09 315.055 407.057 314.792 407.076C313.226 407.236 311.847 409.629 311.565 410.953C311.565 411.033 311.451 412.003 311.409 412.536C311.184 412.068 310.965 411.6 310.72 411.127C310.015 409.779 309.258 408.43 308.511 407.081C308.281 406.668 308.057 406.255 307.832 405.842C308.041 405.798 310.553 405.245 311.487 404.553C312.328 403.941 313.215 402.936 313.21 401.871C313.217 401.62 313.168 401.371 313.067 401.139C312.966 400.908 312.816 400.699 312.625 400.526C312.434 400.353 312.207 400.221 311.959 400.137C311.71 400.053 311.447 400.02 311.184 400.04C309.618 400.204 308.24 402.593 307.952 403.916C307.952 404.016 307.801 405.409 307.785 405.768C307.263 404.857 306.804 403.946 306.36 403.026C305.753 401.79 305.23 400.518 304.794 399.219C304.893 399.219 307.514 398.632 308.48 397.925C309.315 397.313 310.208 396.308 310.197 395.243C310.205 394.992 310.157 394.742 310.056 394.51C309.956 394.278 309.805 394.069 309.614 393.896C309.423 393.723 309.195 393.591 308.947 393.507C308.698 393.424 308.434 393.391 308.172 393.411C306.605 393.576 305.232 395.969 304.945 397.288C304.945 397.392 304.778 398.895 304.773 399.169C304.773 399.094 304.715 399.015 304.694 398.94C304.302 397.625 304.033 396.28 303.89 394.919C303.802 394.173 303.765 393.426 303.739 392.745C304.261 392.69 306.517 392.396 307.462 391.854C308.407 391.311 309.367 390.426 309.482 389.366C309.517 389.117 309.497 388.864 309.423 388.623C309.35 388.382 309.223 388.159 309.053 387.967C308.883 387.776 308.672 387.621 308.435 387.512C308.198 387.403 307.939 387.343 307.676 387.335C306.109 387.335 304.459 389.57 304.021 390.849C304.021 390.923 303.838 391.655 303.734 392.192C303.734 391.874 303.734 391.545 303.734 391.242C303.734 390.102 303.807 389.057 303.885 388.131C303.932 387.604 303.984 387.136 304.042 386.683C304.501 386.385 306.334 385.151 306.898 384.27C307.462 383.389 307.895 382.165 307.482 381.174C307.393 380.94 307.252 380.725 307.07 380.546C306.888 380.366 306.668 380.224 306.425 380.131C306.182 380.037 305.921 379.993 305.659 380.001C305.397 380.009 305.139 380.07 304.903 380.179C303.494 380.871 303.123 383.573 303.337 384.907C303.337 385.021 303.89 386.783 303.911 386.768H303.943C303.88 387.196 303.817 387.654 303.76 388.156C303.666 389.082 303.567 390.147 303.535 391.277C303.49 392.511 303.522 393.748 303.629 394.979C303.741 396.359 303.982 397.726 304.35 399.065V399.114C304.099 398.741 303.368 397.721 303.306 397.646C302.381 396.626 299.964 395.158 298.502 395.765C298.263 395.87 298.049 396.021 297.876 396.209C297.702 396.397 297.571 396.618 297.493 396.858C297.415 397.097 297.39 397.35 297.421 397.599C297.452 397.848 297.537 398.088 297.672 398.303C298.288 399.199 299.578 399.662 300.627 399.806Z" fill="#263238"/>
<path d="M327.805 392.71C327.831 392.71 328.327 390.948 328.327 390.834C328.52 389.495 328.076 386.803 326.651 386.146C326.41 386.044 326.15 385.991 325.886 385.99C325.623 385.99 325.363 386.042 325.122 386.144C324.881 386.246 324.666 386.395 324.489 386.581C324.313 386.768 324.179 386.987 324.098 387.226C323.711 388.221 324.197 389.455 324.771 390.301C325.45 391.296 327.805 392.71 327.805 392.71Z" fill="#263238"/>
<path d="M344.102 405.061C344.728 405.336 346.256 405.301 346.259 405.301C346.262 405.301 345.929 404.29 345.9 404.229C345.564 403.519 344.501 402.349 343.639 402.467C343.496 402.491 343.359 402.544 343.238 402.624C343.117 402.704 343.013 402.809 342.935 402.932C342.857 403.055 342.805 403.194 342.783 403.338C342.761 403.483 342.77 403.63 342.809 403.771C342.952 404.371 343.567 404.826 344.102 405.061Z" fill="#263238"/>
<path d="M344.633 409.532C345.282 409.628 346.644 409.228 346.756 409.196C346.981 409.986 347.257 410.76 347.583 411.514C347.775 411.95 347.975 412.387 348.184 412.824C348.06 412.638 347.945 412.476 347.928 412.453C347.419 411.859 346.086 411.004 345.285 411.357C345.153 411.418 345.036 411.507 344.94 411.617C344.844 411.727 344.772 411.855 344.729 411.995C344.686 412.135 344.673 412.282 344.69 412.427C344.707 412.572 344.754 412.712 344.828 412.838C345.115 413.38 345.833 413.649 346.408 413.733C346.983 413.817 348.166 413.504 348.474 413.415C348.557 413.583 348.635 413.748 348.718 413.913C349.114 414.707 349.511 415.498 349.867 416.286C349.996 416.576 350.114 416.842 350.232 417.12C350.123 416.958 350.028 416.831 350.011 416.802C349.502 416.208 348.169 415.353 347.368 415.706C347.236 415.767 347.119 415.855 347.023 415.965C346.927 416.075 346.856 416.203 346.812 416.343C346.769 416.482 346.756 416.629 346.773 416.774C346.79 416.919 346.837 417.059 346.911 417.184C347.198 417.729 347.916 417.998 348.491 418.082C349.066 418.166 350.134 417.88 350.502 417.778C350.614 418.068 350.726 418.358 350.824 418.647C350.884 418.844 350.959 419.027 351.008 419.227C351.057 419.427 351.117 419.621 351.172 419.806C351.261 420.183 351.355 420.571 351.433 420.939C351.488 421.194 351.536 421.441 351.588 421.687C351.462 421.397 351.206 420.87 351.177 420.818C350.764 420.151 349.574 419.114 348.729 419.328C348.59 419.369 348.461 419.438 348.35 419.532C348.239 419.626 348.149 419.743 348.086 419.874C348.022 420.006 347.987 420.149 347.982 420.295C347.977 420.441 348.003 420.587 348.057 420.722C348.267 421.301 348.919 421.678 349.494 421.849C350.106 422.04 351.462 421.867 351.631 421.849C351.712 422.258 351.786 422.658 351.852 423.034C351.901 423.324 351.947 423.582 351.987 423.837H352.53C352.479 423.547 352.421 423.257 352.361 422.939C352.281 422.521 352.186 422.069 352.074 421.629C352.483 421.459 352.882 421.265 353.269 421.049C353.714 421.539 354.858 422.107 354.993 422.182C354.835 422.568 354.679 422.941 354.53 423.292C354.45 423.477 354.372 423.651 354.295 423.825H354.869C354.912 423.715 354.958 423.608 355.004 423.495C355.165 423.104 355.329 422.681 355.49 422.246C355.653 422.281 356.998 422.556 357.621 422.414C358.196 422.284 358.877 421.962 359.13 421.394C359.196 421.263 359.234 421.118 359.241 420.971C359.247 420.823 359.223 420.676 359.168 420.538C359.114 420.401 359.031 420.277 358.925 420.175C358.819 420.073 358.693 419.995 358.555 419.945C357.728 419.656 356.466 420.612 356.004 421.244C355.978 421.281 355.717 421.719 355.573 422C355.639 421.82 355.705 421.649 355.768 421.464C355.901 421.102 356.024 420.736 356.153 420.342C356.211 420.149 356.268 419.956 356.326 419.763C356.389 419.572 356.429 419.36 356.481 419.154C356.596 418.679 356.685 418.19 356.768 417.706C357.084 417.822 358.205 418.216 358.794 418.175C359.383 418.135 360.101 417.92 360.437 417.399C360.52 417.279 360.578 417.143 360.605 416.999C360.633 416.856 360.63 416.708 360.598 416.565C360.565 416.423 360.503 416.289 360.415 416.173C360.327 416.056 360.216 415.959 360.089 415.889C359.314 415.486 357.926 416.231 357.374 416.784C357.34 416.819 356.987 417.26 356.8 417.506C356.846 417.216 356.892 416.926 356.929 416.61C357.035 415.741 357.119 414.855 357.216 413.971C357.242 413.699 357.271 413.429 357.3 413.16C357.412 413.203 358.736 413.701 359.391 413.655C359.966 413.615 360.698 413.397 361.035 412.879C361.118 412.759 361.175 412.623 361.203 412.479C361.231 412.336 361.228 412.188 361.195 412.045C361.162 411.903 361.1 411.769 361.013 411.653C360.925 411.536 360.814 411.439 360.687 411.369C359.914 410.966 358.524 411.708 357.972 412.264C357.929 412.305 357.423 412.942 357.303 413.11C357.366 412.516 357.435 411.925 357.524 411.346C357.641 410.563 357.809 409.789 358.027 409.028C358.078 409.048 359.463 409.575 360.13 409.526C360.704 409.486 361.437 409.271 361.773 408.75C361.856 408.63 361.914 408.495 361.942 408.352C361.97 408.208 361.967 408.061 361.935 407.919C361.902 407.776 361.84 407.643 361.753 407.526C361.666 407.41 361.555 407.313 361.428 407.243C360.652 406.837 359.262 407.582 358.71 408.135C358.667 408.179 358.136 408.866 358.035 409.005C358.035 408.961 358.055 408.915 358.07 408.871C358.308 408.112 358.612 407.376 358.98 406.672C359.179 406.281 359.391 405.919 359.604 405.568C359.851 405.693 360.991 406.252 361.598 406.275C362.204 406.298 362.925 406.165 363.322 405.696C363.417 405.586 363.488 405.457 363.531 405.317C363.574 405.178 363.587 405.031 363.57 404.886C363.553 404.741 363.506 404.601 363.432 404.475C363.358 404.35 363.259 404.242 363.141 404.157C362.414 403.67 360.951 404.256 360.342 404.737C360.311 404.763 360.003 405.07 359.768 405.299C359.868 405.142 359.966 404.98 360.055 404.832C360.42 404.279 360.788 403.795 361.118 403.366C361.305 403.126 361.483 402.911 361.649 402.714C361.954 402.714 363.189 402.671 363.729 402.424C364.27 402.178 364.856 401.709 364.985 401.1C365.02 400.959 365.025 400.811 364.999 400.667C364.974 400.524 364.919 400.387 364.837 400.266C364.756 400.145 364.65 400.043 364.527 399.966C364.404 399.889 364.267 399.839 364.123 399.82C363.261 399.724 362.227 400.924 361.911 401.642C361.882 401.703 361.563 402.723 361.58 402.723H361.598C361.434 402.911 361.262 403.114 361.075 403.34C360.736 403.76 360.357 404.238 359.98 404.789C359.562 405.375 359.178 405.985 358.831 406.617C358.442 407.321 358.117 408.059 357.86 408.822V408.851C357.86 408.593 357.86 407.872 357.846 407.817C357.745 407.037 357.099 405.591 356.24 405.432C356.096 405.41 355.95 405.418 355.81 405.456C355.671 405.494 355.54 405.562 355.428 405.654C355.316 405.746 355.224 405.862 355.159 405.992C355.094 406.123 355.057 406.265 355.05 406.411C355.001 407.029 355.444 407.649 355.878 408.04C356.369 408.48 357.725 408.909 357.834 408.941C357.591 409.724 357.399 410.523 357.259 411.331C357.176 411.801 357.107 412.276 357.044 412.757C357.044 412.534 357.044 412.334 357.044 412.305C356.943 411.525 356.297 410.082 355.438 409.92C355.295 409.898 355.149 409.907 355.009 409.945C354.87 409.983 354.74 410.051 354.627 410.143C354.515 410.236 354.424 410.351 354.358 410.481C354.293 410.611 354.256 410.754 354.249 410.9C354.2 411.52 354.645 412.14 355.076 412.528C355.507 412.916 356.668 413.313 356.975 413.412C356.952 413.594 356.926 413.78 356.906 413.962C356.8 414.831 356.699 415.727 356.576 416.587C356.533 416.877 356.478 417.19 356.423 417.486C356.423 417.289 356.423 417.123 356.423 417.097C356.326 416.318 355.676 414.872 354.82 414.713C354.679 414.692 354.536 414.701 354.399 414.739C354.261 414.776 354.133 414.842 354.022 414.932C353.912 415.022 353.82 415.135 353.754 415.262C353.689 415.389 353.649 415.529 353.639 415.672C353.591 416.289 354.036 416.909 354.47 417.3C354.904 417.691 355.949 418.045 356.311 418.169C356.248 418.474 356.185 418.778 356.11 419.068C356.053 419.265 356.013 419.459 355.946 419.647C355.88 419.835 355.823 420.032 355.76 420.227C355.63 420.592 355.498 420.965 355.36 421.316C355.268 421.562 355.174 421.794 355.073 422.026C355.119 421.736 355.199 421.133 355.199 421.081C355.189 420.391 355.004 419.715 354.662 419.117C354.665 419.039 354.66 418.962 354.648 418.885C354.629 418.741 354.58 418.603 354.504 418.479C354.428 418.356 354.328 418.249 354.209 418.168C354.09 418.086 353.955 418.03 353.814 418.004C353.672 417.977 353.527 417.982 353.387 418.016C352.545 418.242 352.01 419.734 351.97 420.516C351.97 420.563 351.996 421.07 352.022 421.386C351.979 421.203 351.939 421.02 351.893 420.832C351.806 420.455 351.706 420.085 351.605 419.673C351.548 419.482 351.488 419.288 351.43 419.094C351.373 418.899 351.292 418.7 351.226 418.5C351.059 418.042 350.867 417.584 350.652 417.126C350.976 417.048 352.131 416.752 352.597 416.393C353.062 416.034 353.548 415.452 353.542 414.831C353.545 414.685 353.519 414.54 353.463 414.405C353.408 414.27 353.325 414.149 353.22 414.048C353.114 413.948 352.99 413.871 352.853 413.822C352.717 413.773 352.571 413.754 352.427 413.765C351.565 413.858 350.807 415.252 350.652 416.022C350.652 416.069 350.588 416.634 350.565 416.944C350.442 416.671 350.321 416.399 350.186 416.124C349.798 415.339 349.382 414.553 348.971 413.768C348.844 413.528 348.721 413.287 348.597 413.047C348.712 413.021 350.094 412.699 350.608 412.296C351.071 411.94 351.559 411.354 351.557 410.734C351.56 410.588 351.533 410.443 351.478 410.308C351.422 410.173 351.339 410.052 351.234 409.951C351.129 409.851 351.004 409.774 350.868 409.725C350.731 409.676 350.586 409.657 350.442 409.668C349.58 409.764 348.821 411.155 348.663 411.925C348.663 411.983 348.58 412.795 348.571 413.003C348.284 412.473 348.031 411.943 347.787 411.407C347.453 410.687 347.165 409.947 346.925 409.19C346.98 409.19 348.422 408.848 348.954 408.437C349.413 408.08 349.905 407.495 349.899 406.875C349.903 406.729 349.876 406.583 349.821 406.448C349.766 406.313 349.683 406.191 349.578 406.091C349.472 405.99 349.347 405.913 349.211 405.864C349.074 405.816 348.929 405.797 348.784 405.809C347.922 405.904 347.167 407.298 347.009 408.066C347.009 408.127 346.917 409.002 346.914 409.161C346.914 409.118 346.882 409.071 346.871 409.028C346.655 408.262 346.507 407.479 346.428 406.687C346.379 406.252 346.359 405.817 346.345 405.42C346.632 405.389 347.873 405.218 348.393 404.902C348.913 404.586 349.442 404.07 349.505 403.453C349.525 403.308 349.514 403.161 349.473 403.021C349.432 402.88 349.363 402.75 349.269 402.639C349.175 402.527 349.059 402.437 348.929 402.374C348.798 402.31 348.656 402.275 348.511 402.271C347.649 402.271 346.741 403.572 346.5 404.317C346.5 404.36 346.399 404.786 346.342 405.099C346.342 404.913 346.342 404.722 346.342 404.545C346.342 403.882 346.382 403.273 346.425 402.735C346.451 402.427 346.48 402.155 346.512 401.891C346.764 401.717 347.773 400.999 348.083 400.486C348.393 399.973 348.632 399.26 348.405 398.684C348.355 398.547 348.278 398.422 348.178 398.318C348.078 398.213 347.957 398.131 347.823 398.076C347.689 398.021 347.545 397.996 347.401 398.001C347.257 398.005 347.115 398.041 346.986 398.104C346.21 398.507 346.006 400.08 346.124 400.857C346.124 400.924 346.428 401.949 346.44 401.941H346.457C346.422 402.19 346.388 402.456 346.356 402.749C346.305 403.288 346.25 403.908 346.233 404.566C346.208 405.285 346.225 406.004 346.285 406.721C346.346 407.525 346.479 408.321 346.681 409.1V409.129C346.543 408.912 346.141 408.318 346.106 408.274C345.598 407.68 344.268 406.826 343.463 407.179C343.332 407.24 343.214 407.328 343.119 407.438C343.023 407.547 342.951 407.676 342.908 407.815C342.865 407.955 342.851 408.102 342.868 408.247C342.885 408.392 342.932 408.531 343.006 408.657C343.345 409.178 344.055 409.448 344.633 409.532Z" fill="#263238"/>
<path d="M359.587 405.401C359.601 405.401 359.874 404.375 359.874 404.308C359.98 403.529 359.736 401.961 358.952 401.579C358.82 401.519 358.676 401.488 358.531 401.488C358.386 401.488 358.243 401.519 358.111 401.578C357.978 401.637 357.86 401.724 357.762 401.832C357.665 401.941 357.592 402.069 357.547 402.208C357.334 402.787 357.602 403.506 357.918 403.998C358.291 404.578 359.587 405.401 359.587 405.401Z" fill="#263238"/>
</svg>
