<svg width="195" height="125" viewBox="0 0 195 125" fill="none" xmlns="http://www.w3.org/2000/svg">
<path d="M7.32512 102.371L8.32979 104.036C9.46343 105.867 11.105 107.345 13.0637 108.299L14.7665 109.132L13.0637 110.131C11.1846 111.231 9.67074 112.838 8.70441 114.76L7.83597 116.425L6.8313 114.76C5.70208 112.926 4.05931 111.447 2.09737 110.497L0.394531 109.648L2.09737 108.665C3.97278 107.561 5.48555 105.955 6.45668 104.036L7.32512 102.371Z" fill="#92E3A9"/>
<path d="M186.794 56.4258L187.799 58.0909C188.916 59.9469 190.56 61.4453 192.532 62.4037L194.235 63.253L192.532 64.2354C190.657 65.3396 189.144 66.946 188.173 68.8645L187.305 70.5297L186.3 68.8645C185.166 67.0342 183.525 65.556 181.566 64.6017L179.863 63.7525L181.566 62.7701C183.442 61.6658 184.954 60.0594 185.925 58.1409L186.794 56.4258Z" fill="#92E3A9"/>
<path d="M95.3493 0.794922L95.8602 1.61086C96.4244 2.52811 97.2459 3.26783 98.2272 3.74226L99.1126 4.1752L98.2782 4.6581C97.3309 5.2111 96.5678 6.02088 96.0816 6.98933L95.6558 7.83857L95.145 7.02264C94.5854 6.10175 93.7626 5.3609 92.778 4.89122L91.8926 4.45828L92.744 3.95874C93.6814 3.40625 94.4377 2.60315 94.9236 1.64415L95.3493 0.794922Z" fill="#92E3A9"/>
<path d="M164.824 57.043L165.318 57.8589C165.889 58.7767 166.716 59.5162 167.702 59.9903L168.57 60.4232L167.736 60.9061C166.797 61.4646 166.041 62.2733 165.556 63.2374L165.113 64.0866L164.62 63.2707C164.049 62.3528 163.222 61.6134 162.236 61.1393L161.367 60.7063L162.202 60.2234C163.14 59.665 163.896 58.8563 164.381 57.8922L164.824 57.043Z" fill="#92E3A9"/>
<path d="M98.9607 117.088L99.4715 117.904C100.036 118.82 100.858 119.56 101.838 120.035L102.724 120.468L101.873 120.951C100.934 121.509 100.178 122.318 99.6929 123.282L99.2502 124.132L98.7563 123.316C98.188 122.397 97.3681 121.653 96.3894 121.168L95.5039 120.751L96.3383 120.252C97.2808 119.7 98.0428 118.897 98.535 117.937L98.9607 117.088Z" fill="#92E3A9"/>
<path d="M107.616 67.8365C110.525 50.4099 98.4364 33.9771 80.6154 31.1328C62.7945 28.2884 45.9898 40.1096 43.0811 57.5362C40.1724 74.9628 52.2612 91.3956 70.0821 94.24C87.903 97.0843 104.708 85.2631 107.616 67.8365Z" fill="#92E3A9"/>
<g opacity="0.3">
<path d="M71.0563 72.6827C71.0563 73.7135 70.7437 74.7212 70.158 75.5783C69.5724 76.4354 68.74 77.1034 67.7661 77.4979C66.7922 77.8924 65.7205 77.9956 64.6866 77.7945C63.6527 77.5934 62.703 77.097 61.9576 76.3681C61.2122 75.6392 60.7045 74.7105 60.4989 73.6995C60.2932 72.6884 60.3988 71.6405 60.8022 70.6881C61.2056 69.7358 61.8888 68.9218 62.7653 68.3491C63.6418 67.7764 64.6722 67.4707 65.7264 67.4707C67.14 67.4707 68.4957 68.0198 69.4952 68.9973C70.4948 69.9747 71.0563 71.3004 71.0563 72.6827Z" fill="#F5F5F5"/>
</g>
<g opacity="0.3">
<path d="M63.5675 57.6302C63.5675 58.2296 63.3857 58.8155 63.0452 59.3139C62.7046 59.8123 62.2206 60.2007 61.6543 60.4301C61.088 60.6595 60.4649 60.7195 59.8637 60.6026C59.2625 60.4857 58.7103 60.197 58.2769 59.7732C57.8435 59.3493 57.5483 58.8093 57.4287 58.2215C57.3091 57.6336 57.3705 57.0242 57.6051 56.4705C57.8396 55.9167 58.2369 55.4434 58.7465 55.1104C59.2562 54.7773 59.8554 54.5996 60.4683 54.5996C61.2903 54.5996 62.0785 54.9189 62.6598 55.4873C63.241 56.0556 63.5675 56.8264 63.5675 57.6302Z" fill="#F5F5F5"/>
</g>
<path d="M43.6517 70.4841C43.805 71.0336 15.674 97.4265 22.9281 103.055C30.1822 108.683 60.6801 94.246 86.6826 73.7145C112.685 53.1831 136.423 28.2389 129.918 21.6449C123.413 15.0508 90.9397 34.5832 90.9397 34.5832L94.8903 36.9977C94.8903 36.9977 114.524 24.6755 120.739 29.4545C126.955 34.2335 109.245 52.9333 84.2475 70.7839C59.2497 88.6344 35.0864 101.156 31.3401 96.2609C27.5939 91.3653 45.2864 75.0633 45.2864 75.0633L43.6517 70.4841Z" fill="#768199"/>
<g opacity="0.3">
<path d="M43.6537 70.4841C43.8069 71.0336 15.6759 97.4265 22.93 103.055C30.1841 108.683 60.6821 94.246 86.6845 73.7145C112.687 53.1831 136.425 28.2389 129.92 21.6449C123.415 15.0508 90.9416 34.5832 90.9416 34.5832L94.8922 36.9977C94.8922 36.9977 114.526 24.6755 120.741 29.4545C126.957 34.2335 109.247 52.9333 84.2494 70.7838C59.2517 88.6344 35.0883 101.156 31.3421 96.2609C27.5958 91.3653 45.2884 75.0633 45.2884 75.0633L43.6537 70.4841Z" fill="#FDDD81"/>
</g>
<g opacity="0.3">
<path d="M57.4288 40.18C57.6842 40.4964 55.4705 42.328 52.9673 46.0247C49.6407 50.763 47.8052 56.3499 47.6872 62.0963C47.5691 67.8426 49.1738 73.4971 52.3032 78.3622C54.6702 82.1421 56.7987 84.0737 56.5263 84.3734C56.2538 84.6732 53.7336 83.1079 50.8217 79.378C49.1363 77.1589 47.799 74.7063 46.8541 72.1012C44.4386 65.6235 44.5844 58.4972 47.2628 52.1192C48.3104 49.5544 49.7454 47.1576 51.5199 45.0089C54.5169 41.3456 57.2074 39.9635 57.4288 40.18Z" fill="#F5F5F5"/>
</g>
<path d="M124.835 90.8822C124.924 87.2109 126.124 83.6477 128.284 80.6433C130.443 77.6389 133.466 75.3283 136.968 74.0037C140.471 72.6791 144.297 72.4 147.962 73.2017C151.627 74.0035 154.966 75.85 157.558 78.5077C160.149 81.1655 161.877 84.5151 162.522 88.133C163.166 91.7508 162.699 95.4744 161.18 98.8328C159.66 102.191 157.157 105.033 153.985 107C150.813 108.967 147.117 109.97 143.362 109.882C138.329 109.764 133.55 107.696 130.076 104.133C126.602 100.57 124.717 95.804 124.835 90.8822Z" fill="#92E3A9"/>
<g opacity="0.4">
<path d="M149.999 84.2226C150.013 83.6228 150.208 83.0404 150.561 82.5492C150.914 82.0581 151.407 81.6804 151.979 81.4639C152.552 81.2474 153.177 81.2019 153.776 81.3332C154.374 81.4644 154.92 81.7665 155.343 82.2012C155.766 82.6358 156.047 83.1835 156.152 83.7748C156.256 84.3661 156.179 84.9743 155.929 85.5225C155.68 86.0707 155.269 86.5342 154.75 86.8541C154.231 87.1741 153.627 87.3362 153.013 87.3198C152.607 87.3112 152.207 87.2241 151.835 87.0635C151.463 86.903 151.128 86.6721 150.847 86.3843C150.567 86.0964 150.348 85.7573 150.203 85.3863C150.057 85.0153 149.988 84.6198 149.999 84.2226Z" fill="black"/>
</g>
<g opacity="0.4">
<path d="M156.196 91.2826C156.206 90.9317 156.324 90.5919 156.533 90.3066C156.742 90.0213 157.034 89.8036 157.37 89.6811C157.707 89.5587 158.073 89.5372 158.422 89.6193C158.771 89.7014 159.087 89.8834 159.33 90.1421C159.573 90.4008 159.731 90.7244 159.785 91.0716C159.838 91.4187 159.785 91.7736 159.631 92.0909C159.478 92.4082 159.231 92.6735 158.922 92.8528C158.613 93.0321 158.257 93.1174 157.899 93.0977C157.43 93.0678 156.992 92.8624 156.675 92.5242C156.358 92.1861 156.186 91.7414 156.196 91.2826Z" fill="black"/>
</g>
<g opacity="0.4">
<path d="M153.769 96.6953C153.946 96.6997 154.115 96.7717 154.239 96.8962C154.363 97.0206 154.433 97.1876 154.433 97.3614C154.43 97.4467 154.411 97.5307 154.376 97.6087C154.34 97.6866 154.289 97.757 154.226 97.8158C154.163 97.8745 154.088 97.9205 154.007 97.9511C153.926 97.9817 153.839 97.9964 153.752 97.9941C153.664 97.9943 153.577 97.9769 153.496 97.943C153.415 97.9091 153.342 97.8595 153.281 97.7972C153.221 97.7349 153.174 97.6611 153.144 97.5805C153.113 97.4998 153.1 97.4139 153.104 97.3281C153.109 97.1587 153.181 96.9978 153.305 96.8796C153.429 96.7614 153.595 96.6953 153.769 96.6953Z" fill="black"/>
</g>
</svg>
