<svg width="392" height="264" viewBox="0 0 392 264" fill="none" xmlns="http://www.w3.org/2000/svg">
<g clip-path="url(#clip0_257_5759)">
<path d="M228.118 51.8473C235.446 51.8473 241.387 45.7035 241.387 38.1248C241.387 30.5461 235.446 24.4023 228.118 24.4023C220.79 24.4023 214.85 30.5461 214.85 38.1248C214.85 45.7035 220.79 51.8473 228.118 51.8473Z" fill="#F1F3F4"/>
<path d="M331.048 255.505C350.77 239.969 360.19 213.863 354.293 188.959C354.146 188.34 353.991 187.723 353.828 187.107C349.919 172.324 340.246 158.275 326.149 153.551C314.312 149.585 301.392 152.635 289.043 151.058C264.802 147.962 246.008 127.677 232.784 106.438C219.561 85.1996 209.398 61.426 191.826 43.8798C162.862 14.9579 115.615 8.73095 79.7037 27.557C43.7927 46.3831 20.9177 88.1503 21.8933 129.776C22.8689 171.403 46.7632 211.2 81.4636 232.316C94.2111 240.072 108.955 245.567 123.628 243.645C136.359 241.976 147.928 234.901 160.599 232.801C180.522 229.498 200.318 238.814 217.55 249.67C234.781 260.526 251.426 273.393 271.007 278.426C290.021 283.313 313.577 269.267 331.048 255.505Z" fill="#F1F3F4"/>
<path d="M302.712 28.431C302.28 28.1329 301.843 27.8502 301.41 27.5624C288.913 19.2961 275.517 12.5807 261.501 7.55486L258.251 53.9222H237.648V0.786322C236.351 0.508796 235.044 0.246689 233.737 0V53.9222H209.253C195.774 53.9222 182.848 48.3846 173.317 38.5277C163.786 28.6707 158.431 15.3018 158.431 1.36199C157.12 1.65493 155.818 1.96839 154.516 2.30245V53.9222H134.573L131.478 9.70827C117.074 15.4213 103.399 22.9343 90.7585 32.0799C90.5399 32.2341 90.3212 32.3934 90.1076 32.5476C89.0093 33.3442 87.926 34.1562 86.8477 34.9785V211.87H145.62L144.582 196.992L138.867 115.302H253.953L248.238 196.992L247.199 211.87H305.321V30.2195C304.456 29.613 303.587 29.0169 302.712 28.431ZM154.516 101.811H137.923L134.857 57.972H154.516V101.811ZM233.737 101.811H205.869V100.942C205.869 100.525 205.789 100.111 205.635 99.7256C205.48 99.3399 205.254 98.9895 204.968 98.6945C204.682 98.3995 204.343 98.1657 203.97 98.0064C203.597 97.8471 203.197 97.7654 202.793 97.7661H190.678C190.274 97.766 189.875 97.848 189.502 98.0076C189.13 98.1671 188.791 98.4011 188.506 98.696C188.221 98.991 187.994 99.3412 187.84 99.7266C187.686 100.112 187.606 100.525 187.607 100.942V101.811H158.431V57.972H233.737V101.811ZM237.648 101.811V57.972H257.968L254.902 101.811H237.648Z" fill="#3F3D56"/>
<path d="M0.359375 223.197C4.67639 228.487 9.34574 233.459 14.3333 238.076L377.385 238.59C382.373 233.973 387.042 229.001 391.359 223.711L0.359375 223.197Z" fill="#3F3D56"/>
<path d="M246.557 175.556V219.602C246.557 220.164 246.773 220.702 247.157 221.099C247.54 221.496 248.061 221.719 248.604 221.719H311.717C312.26 221.719 312.78 221.496 313.164 221.099C313.547 220.702 313.763 220.164 313.764 219.602V175.556C313.762 174.995 313.546 174.458 313.163 174.061C312.779 173.665 312.259 173.442 311.717 173.441H248.604C248.061 173.442 247.541 173.665 247.158 174.061C246.774 174.458 246.558 174.995 246.557 175.556Z" fill="#3F3D56"/>
<path d="M248.035 176.104V219.059C248.036 219.359 248.151 219.647 248.356 219.859C248.561 220.071 248.839 220.19 249.129 220.191H311.189C311.479 220.19 311.757 220.071 311.962 219.859C312.167 219.647 312.283 219.359 312.283 219.059V176.104C312.283 175.804 312.168 175.516 311.963 175.304C311.758 175.091 311.48 174.971 311.189 174.971H249.129C248.839 174.971 248.561 175.091 248.355 175.304C248.15 175.516 248.035 175.804 248.035 176.104Z" fill="#92E3A9"/>
<path d="M245.237 228.193C245.352 228.343 245.499 228.464 245.666 228.547C245.834 228.629 246.017 228.672 246.202 228.671H313.782C313.967 228.671 314.149 228.628 314.316 228.545C314.483 228.463 314.63 228.343 314.746 228.195C314.863 228.046 314.945 227.873 314.989 227.687C315.032 227.501 315.035 227.308 314.997 227.121L313.948 221.968C313.905 221.757 313.811 221.562 313.676 221.399C313.541 221.236 313.368 221.11 313.174 221.033C313.034 220.976 312.884 220.947 312.733 220.947H247.247C247.096 220.947 246.947 220.976 246.806 221.033C246.612 221.11 246.439 221.236 246.304 221.399C246.169 221.562 246.075 221.757 246.032 221.968L244.983 227.121C244.945 227.308 244.949 227.501 244.993 227.687C245.037 227.872 245.12 228.045 245.237 228.193Z" fill="#2F2E41"/>
<path d="M310.411 223.168H312.007C312.141 223.168 312.25 223.056 312.25 222.917V222.127C312.25 221.989 312.141 221.876 312.007 221.876H310.411C310.277 221.876 310.169 221.989 310.169 222.127V222.917C310.169 223.056 310.277 223.168 310.411 223.168Z" fill="#3F3D56"/>
<path d="M306.251 223.168H307.847C307.981 223.168 308.09 223.056 308.09 222.917V222.127C308.09 221.989 307.981 221.876 307.847 221.876H306.251C306.117 221.876 306.008 221.989 306.008 222.127V222.917C306.008 223.056 306.117 223.168 306.251 223.168Z" fill="#3F3D56"/>
<path d="M302.089 223.168H303.685C303.819 223.168 303.928 223.056 303.928 222.917V222.127C303.928 221.989 303.819 221.876 303.685 221.876H302.089C301.955 221.876 301.846 221.989 301.846 222.127V222.917C301.846 223.056 301.955 223.168 302.089 223.168Z" fill="#3F3D56"/>
<path d="M297.929 223.168H299.525C299.659 223.168 299.768 223.056 299.768 222.917V222.127C299.768 221.989 299.659 221.876 299.525 221.876H297.929C297.795 221.876 297.686 221.989 297.686 222.127V222.917C297.686 223.056 297.795 223.168 297.929 223.168Z" fill="#3F3D56"/>
<path d="M293.761 223.168H295.357C295.491 223.168 295.6 223.056 295.6 222.917V222.127C295.6 221.989 295.491 221.876 295.357 221.876H293.761C293.627 221.876 293.518 221.989 293.518 222.127V222.917C293.518 223.056 293.627 223.168 293.761 223.168Z" fill="#3F3D56"/>
<path d="M289.601 223.168H291.197C291.331 223.168 291.439 223.056 291.439 222.917V222.127C291.439 221.989 291.331 221.876 291.197 221.876H289.601C289.467 221.876 289.358 221.989 289.358 222.127V222.917C289.358 223.056 289.467 223.168 289.601 223.168Z" fill="#3F3D56"/>
<path d="M285.439 223.168H287.035C287.169 223.168 287.277 223.056 287.277 222.917V222.127C287.277 221.989 287.169 221.876 287.035 221.876H285.439C285.305 221.876 285.196 221.989 285.196 222.127V222.917C285.196 223.056 285.305 223.168 285.439 223.168Z" fill="#3F3D56"/>
<path d="M281.273 223.168H282.869C283.003 223.168 283.111 223.056 283.111 222.917V222.127C283.111 221.989 283.003 221.876 282.869 221.876H281.273C281.139 221.876 281.03 221.989 281.03 222.127V222.917C281.03 223.056 281.139 223.168 281.273 223.168Z" fill="#3F3D56"/>
<path d="M277.11 223.168H278.707C278.841 223.168 278.949 223.056 278.949 222.917V222.127C278.949 221.989 278.841 221.876 278.707 221.876H277.11C276.976 221.876 276.868 221.989 276.868 222.127V222.917C276.868 223.056 276.976 223.168 277.11 223.168Z" fill="#3F3D56"/>
<path d="M272.95 223.168H274.546C274.68 223.168 274.789 223.056 274.789 222.917V222.127C274.789 221.989 274.68 221.876 274.546 221.876H272.95C272.816 221.876 272.708 221.989 272.708 222.127V222.917C272.708 223.056 272.816 223.168 272.95 223.168Z" fill="#3F3D56"/>
<path d="M268.788 223.168H270.384C270.518 223.168 270.627 223.056 270.627 222.917V222.127C270.627 221.989 270.518 221.876 270.384 221.876H268.788C268.654 221.876 268.546 221.989 268.546 222.127V222.917C268.546 223.056 268.654 223.168 268.788 223.168Z" fill="#3F3D56"/>
<path d="M264.62 223.168H266.216C266.35 223.168 266.459 223.056 266.459 222.917V222.127C266.459 221.989 266.35 221.876 266.216 221.876H264.62C264.486 221.876 264.378 221.989 264.378 222.127V222.917C264.378 223.056 264.486 223.168 264.62 223.168Z" fill="#3F3D56"/>
<path d="M260.46 223.168H262.056C262.19 223.168 262.299 223.056 262.299 222.917V222.127C262.299 221.989 262.19 221.876 262.056 221.876H260.46C260.326 221.876 260.217 221.989 260.217 222.127V222.917C260.217 223.056 260.326 223.168 260.46 223.168Z" fill="#3F3D56"/>
<path d="M256.298 223.168H257.894C258.028 223.168 258.137 223.056 258.137 222.917V222.127C258.137 221.989 258.028 221.876 257.894 221.876H256.298C256.164 221.876 256.055 221.989 256.055 222.127V222.917C256.055 223.056 256.164 223.168 256.298 223.168Z" fill="#3F3D56"/>
<path d="M252.132 223.168H253.728C253.862 223.168 253.971 223.056 253.971 222.917V222.127C253.971 221.989 253.862 221.876 253.728 221.876H252.132C251.998 221.876 251.889 221.989 251.889 222.127V222.917C251.889 223.056 251.998 223.168 252.132 223.168Z" fill="#3F3D56"/>
<path d="M247.97 223.168H249.566C249.7 223.168 249.809 223.056 249.809 222.917V222.127C249.809 221.989 249.7 221.876 249.566 221.876H247.97C247.836 221.876 247.727 221.989 247.727 222.127V222.917C247.727 223.056 247.836 223.168 247.97 223.168Z" fill="#3F3D56"/>
<path d="M310.466 225.32H312.062C312.196 225.32 312.305 225.208 312.305 225.069V224.28C312.305 224.141 312.196 224.029 312.062 224.029H310.466C310.332 224.029 310.223 224.141 310.223 224.28V225.069C310.223 225.208 310.332 225.32 310.466 225.32Z" fill="#3F3D56"/>
<path d="M306.298 225.32H307.894C308.028 225.32 308.137 225.208 308.137 225.069V224.28C308.137 224.141 308.028 224.029 307.894 224.029H306.298C306.164 224.029 306.055 224.141 306.055 224.28V225.069C306.055 225.208 306.164 225.32 306.298 225.32Z" fill="#3F3D56"/>
<path d="M302.138 225.32H303.734C303.868 225.32 303.977 225.208 303.977 225.069V224.28C303.977 224.141 303.868 224.029 303.734 224.029H302.138C302.004 224.029 301.895 224.141 301.895 224.28V225.069C301.895 225.208 302.004 225.32 302.138 225.32Z" fill="#3F3D56"/>
<path d="M297.976 225.32H299.572C299.706 225.32 299.814 225.208 299.814 225.069V224.28C299.814 224.141 299.706 224.029 299.572 224.029H297.976C297.842 224.029 297.733 224.141 297.733 224.28V225.069C297.733 225.208 297.842 225.32 297.976 225.32Z" fill="#3F3D56"/>
<path d="M293.816 225.32H295.412C295.546 225.32 295.654 225.208 295.654 225.069V224.28C295.654 224.141 295.546 224.029 295.412 224.029H293.816C293.682 224.029 293.573 224.141 293.573 224.28V225.069C293.573 225.208 293.682 225.32 293.816 225.32Z" fill="#3F3D56"/>
<path d="M289.648 225.32H291.244C291.378 225.32 291.486 225.208 291.486 225.069V224.28C291.486 224.141 291.378 224.029 291.244 224.029H289.648C289.514 224.029 289.405 224.141 289.405 224.28V225.069C289.405 225.208 289.514 225.32 289.648 225.32Z" fill="#3F3D56"/>
<path d="M285.487 225.32H287.084C287.218 225.32 287.326 225.208 287.326 225.069V224.28C287.326 224.141 287.218 224.029 287.084 224.029H285.487C285.353 224.029 285.245 224.141 285.245 224.28V225.069C285.245 225.208 285.353 225.32 285.487 225.32Z" fill="#3F3D56"/>
<path d="M281.325 225.32H282.921C283.055 225.32 283.164 225.208 283.164 225.069V224.28C283.164 224.141 283.055 224.029 282.921 224.029H281.325C281.191 224.029 281.083 224.141 281.083 224.28V225.069C281.083 225.208 281.191 225.32 281.325 225.32Z" fill="#3F3D56"/>
<path d="M277.159 225.32H278.755C278.889 225.32 278.998 225.208 278.998 225.069V224.28C278.998 224.141 278.889 224.029 278.755 224.029H277.159C277.025 224.029 276.917 224.141 276.917 224.28V225.069C276.917 225.208 277.025 225.32 277.159 225.32Z" fill="#3F3D56"/>
<path d="M272.997 225.32H274.593C274.727 225.32 274.836 225.208 274.836 225.069V224.28C274.836 224.141 274.727 224.029 274.593 224.029H272.997C272.863 224.029 272.755 224.141 272.755 224.28V225.069C272.755 225.208 272.863 225.32 272.997 225.32Z" fill="#3F3D56"/>
<path d="M268.837 225.32H270.433C270.567 225.32 270.676 225.208 270.676 225.069V224.28C270.676 224.141 270.567 224.029 270.433 224.029H268.837C268.703 224.029 268.594 224.141 268.594 224.28V225.069C268.594 225.208 268.703 225.32 268.837 225.32Z" fill="#3F3D56"/>
<path d="M264.675 225.32H266.271C266.405 225.32 266.514 225.208 266.514 225.069V224.28C266.514 224.141 266.405 224.029 266.271 224.029H264.675C264.541 224.029 264.432 224.141 264.432 224.28V225.069C264.432 225.208 264.541 225.32 264.675 225.32Z" fill="#3F3D56"/>
<path d="M260.509 225.32H262.105C262.239 225.32 262.348 225.208 262.348 225.069V224.28C262.348 224.141 262.239 224.029 262.105 224.029H260.509C260.375 224.029 260.266 224.141 260.266 224.28V225.069C260.266 225.208 260.375 225.32 260.509 225.32Z" fill="#3F3D56"/>
<path d="M256.347 225.32H257.943C258.077 225.32 258.186 225.208 258.186 225.069V224.28C258.186 224.141 258.077 224.029 257.943 224.029H256.347C256.213 224.029 256.104 224.141 256.104 224.28V225.069C256.104 225.208 256.213 225.32 256.347 225.32Z" fill="#3F3D56"/>
<path d="M252.187 225.32H253.783C253.917 225.32 254.025 225.208 254.025 225.069V224.28C254.025 224.141 253.917 224.029 253.783 224.029H252.187C252.053 224.029 251.944 224.141 251.944 224.28V225.069C251.944 225.208 252.053 225.32 252.187 225.32Z" fill="#3F3D56"/>
<path d="M248.019 225.32H249.615C249.749 225.32 249.857 225.208 249.857 225.069V224.28C249.857 224.141 249.749 224.029 249.615 224.029H248.019C247.885 224.029 247.776 224.141 247.776 224.28V225.069C247.776 225.208 247.885 225.32 248.019 225.32Z" fill="#3F3D56"/>
<path d="M275.914 227.902H292.08C292.214 227.902 292.322 227.79 292.322 227.651V226.862C292.322 226.723 292.214 226.611 292.08 226.611H275.914C275.78 226.611 275.671 226.723 275.671 226.862V227.651C275.671 227.79 275.78 227.902 275.914 227.902Z" fill="#3F3D56"/>
<path d="M258.787 184.369H257.373C256.945 184.369 256.598 184.728 256.598 185.171C256.598 185.615 256.945 185.974 257.373 185.974H258.787C259.215 185.974 259.562 185.615 259.562 185.171C259.562 184.728 259.215 184.369 258.787 184.369Z" fill="#F5F5F5"/>
<path d="M274.945 184.369H273.532C273.103 184.369 272.756 184.728 272.756 185.171C272.756 185.615 273.103 185.974 273.532 185.974H274.945C275.373 185.974 275.721 185.615 275.721 185.171C275.721 184.728 275.373 184.369 274.945 184.369Z" fill="#F5F5F5"/>
<path d="M279.527 184.369H278.114C277.685 184.369 277.338 184.728 277.338 185.171C277.338 185.615 277.685 185.974 278.114 185.974H279.527C279.955 185.974 280.303 185.615 280.303 185.171C280.303 184.728 279.955 184.369 279.527 184.369Z" fill="#F5F5F5"/>
<path d="M270.553 184.234H261.77C261.341 184.234 260.994 184.594 260.994 185.037C260.994 185.48 261.341 185.839 261.77 185.839H270.553C270.981 185.839 271.329 185.48 271.329 185.037C271.329 184.594 270.981 184.234 270.553 184.234Z" fill="#F5F5F5"/>
<path d="M292.098 184.234H283.315C282.886 184.234 282.539 184.594 282.539 185.037C282.539 185.48 282.886 185.839 283.315 185.839H292.098C292.526 185.839 292.873 185.48 292.873 185.037C292.873 184.594 292.526 184.234 292.098 184.234Z" fill="#F5F5F5"/>
<path d="M263.093 187.99H261.68C261.252 187.99 260.904 188.349 260.904 188.793C260.904 189.236 261.252 189.595 261.68 189.595H263.093C263.522 189.595 263.869 189.236 263.869 188.793C263.869 188.349 263.522 187.99 263.093 187.99Z" fill="#F5F5F5"/>
<path d="M279.255 187.99H277.842C277.414 187.99 277.066 188.349 277.066 188.793C277.066 189.236 277.414 189.595 277.842 189.595H279.255C279.684 189.595 280.031 189.236 280.031 188.793C280.031 188.349 279.684 187.99 279.255 187.99Z" fill="#F5F5F5"/>
<path d="M283.837 187.99H282.424C281.996 187.99 281.648 188.349 281.648 188.793C281.648 189.236 281.996 189.595 282.424 189.595H283.837C284.266 189.595 284.613 189.236 284.613 188.793C284.613 188.349 284.266 187.99 283.837 187.99Z" fill="#F5F5F5"/>
<path d="M274.857 187.855H266.075C265.646 187.855 265.299 188.215 265.299 188.658C265.299 189.101 265.646 189.46 266.075 189.46H274.857C275.286 189.46 275.633 189.101 275.633 188.658C275.633 188.215 275.286 187.855 274.857 187.855Z" fill="#F5F5F5"/>
<path d="M296.41 187.855H287.627C287.199 187.855 286.852 188.215 286.852 188.658C286.852 189.101 287.199 189.46 287.627 189.46H296.41C296.839 189.46 297.186 189.101 297.186 188.658C297.186 188.215 296.839 187.855 296.41 187.855Z" fill="#F5F5F5"/>
<path d="M267.404 191.611H265.991C265.562 191.611 265.215 191.971 265.215 192.414C265.215 192.857 265.562 193.216 265.991 193.216H267.404C267.832 193.216 268.179 192.857 268.179 192.414C268.179 191.971 267.832 191.611 267.404 191.611Z" fill="#F5F5F5"/>
<path d="M283.568 191.611H282.155C281.726 191.611 281.379 191.971 281.379 192.414C281.379 192.857 281.726 193.216 282.155 193.216H283.568C283.996 193.216 284.344 192.857 284.344 192.414C284.344 191.971 283.996 191.611 283.568 191.611Z" fill="#F5F5F5"/>
<path d="M288.144 191.611H286.731C286.302 191.611 285.955 191.971 285.955 192.414C285.955 192.857 286.302 193.216 286.731 193.216H288.144C288.572 193.216 288.92 192.857 288.92 192.414C288.92 191.971 288.572 191.611 288.144 191.611Z" fill="#F5F5F5"/>
<path d="M279.17 191.477H270.387C269.959 191.477 269.611 191.836 269.611 192.279C269.611 192.722 269.959 193.081 270.387 193.081H279.17C279.598 193.081 279.946 192.722 279.946 192.279C279.946 191.836 279.598 191.477 279.17 191.477Z" fill="#F5F5F5"/>
<path d="M300.721 191.477H291.938C291.509 191.477 291.162 191.836 291.162 192.279C291.162 192.722 291.509 193.081 291.938 193.081H300.721C301.149 193.081 301.496 192.722 301.496 192.279C301.496 191.836 301.149 191.477 300.721 191.477Z" fill="#F5F5F5"/>
<path d="M271.716 195.232H270.303C269.875 195.232 269.527 195.592 269.527 196.035C269.527 196.478 269.875 196.837 270.303 196.837H271.716C272.145 196.837 272.492 196.478 272.492 196.035C272.492 195.592 272.145 195.232 271.716 195.232Z" fill="#F5F5F5"/>
<path d="M287.872 195.232H286.459C286.031 195.232 285.684 195.592 285.684 196.035C285.684 196.478 286.031 196.837 286.459 196.837H287.872C288.301 196.837 288.648 196.478 288.648 196.035C288.648 195.592 288.301 195.232 287.872 195.232Z" fill="#F5F5F5"/>
<path d="M292.455 195.232H291.041C290.613 195.232 290.266 195.592 290.266 196.035C290.266 196.478 290.613 196.837 291.041 196.837H292.455C292.883 196.837 293.23 196.478 293.23 196.035C293.23 195.592 292.883 195.232 292.455 195.232Z" fill="#F5F5F5"/>
<path d="M283.48 195.098H274.698C274.269 195.098 273.922 195.457 273.922 195.9C273.922 196.343 274.269 196.702 274.698 196.702H283.48C283.909 196.702 284.256 196.343 284.256 195.9C284.256 195.457 283.909 195.098 283.48 195.098Z" fill="#F5F5F5"/>
<path d="M274.945 209.635H273.532C273.103 209.635 272.756 209.994 272.756 210.437C272.756 210.88 273.103 211.239 273.532 211.239H274.945C275.373 211.239 275.721 210.88 275.721 210.437C275.721 209.994 275.373 209.635 274.945 209.635Z" fill="#F5F5F5"/>
<path d="M279.527 209.635H278.114C277.685 209.635 277.338 209.994 277.338 210.437C277.338 210.88 277.685 211.239 278.114 211.239H279.527C279.955 211.239 280.303 210.88 280.303 210.437C280.303 209.994 279.955 209.635 279.527 209.635Z" fill="#F5F5F5"/>
<path d="M292.098 209.768H283.315C282.886 209.768 282.539 210.127 282.539 210.57C282.539 211.013 282.886 211.372 283.315 211.372H292.098C292.526 211.372 292.873 211.013 292.873 210.57C292.873 210.127 292.526 209.768 292.098 209.768Z" fill="#F5F5F5"/>
<path d="M258.787 209.635H257.373C256.945 209.635 256.598 209.994 256.598 210.437C256.598 210.88 256.945 211.239 257.373 211.239H258.787C259.215 211.239 259.562 210.88 259.562 210.437C259.562 209.994 259.215 209.635 258.787 209.635Z" fill="#F5F5F5"/>
<path d="M270.553 209.768H261.77C261.341 209.768 260.994 210.127 260.994 210.57C260.994 211.013 261.341 211.372 261.77 211.372H270.553C270.981 211.372 271.329 211.013 271.329 210.57C271.329 210.127 270.981 209.768 270.553 209.768Z" fill="#F5F5F5"/>
<path d="M263.093 206.012H261.68C261.252 206.012 260.904 206.371 260.904 206.814C260.904 207.257 261.252 207.616 261.68 207.616H263.093C263.522 207.616 263.869 207.257 263.869 206.814C263.869 206.371 263.522 206.012 263.093 206.012Z" fill="#F5F5F5"/>
<path d="M279.255 206.012H277.842C277.414 206.012 277.066 206.371 277.066 206.814C277.066 207.257 277.414 207.616 277.842 207.616H279.255C279.684 207.616 280.031 207.257 280.031 206.814C280.031 206.371 279.684 206.012 279.255 206.012Z" fill="#F5F5F5"/>
<path d="M283.837 206.012H282.424C281.996 206.012 281.648 206.371 281.648 206.814C281.648 207.257 281.996 207.616 282.424 207.616H283.837C284.266 207.616 284.613 207.257 284.613 206.814C284.613 206.371 284.266 206.012 283.837 206.012Z" fill="#F5F5F5"/>
<path d="M274.857 206.146H266.075C265.646 206.146 265.299 206.506 265.299 206.949C265.299 207.392 265.646 207.751 266.075 207.751H274.857C275.286 207.751 275.633 207.392 275.633 206.949C275.633 206.506 275.286 206.146 274.857 206.146Z" fill="#F5F5F5"/>
<path d="M267.404 202.391H265.991C265.562 202.391 265.215 202.75 265.215 203.193C265.215 203.636 265.562 203.995 265.991 203.995H267.404C267.832 203.995 268.179 203.636 268.179 203.193C268.179 202.75 267.832 202.391 267.404 202.391Z" fill="#F5F5F5"/>
<path d="M283.568 202.391H282.155C281.726 202.391 281.379 202.75 281.379 203.193C281.379 203.636 281.726 203.995 282.155 203.995H283.568C283.996 203.995 284.344 203.636 284.344 203.193C284.344 202.75 283.996 202.391 283.568 202.391Z" fill="#F5F5F5"/>
<path d="M288.144 202.391H286.731C286.302 202.391 285.955 202.75 285.955 203.193C285.955 203.636 286.302 203.995 286.731 203.995H288.144C288.572 203.995 288.92 203.636 288.92 203.193C288.92 202.75 288.572 202.391 288.144 202.391Z" fill="#F5F5F5"/>
<path d="M279.17 202.523H270.387C269.959 202.523 269.611 202.883 269.611 203.326C269.611 203.769 269.959 204.128 270.387 204.128H279.17C279.598 204.128 279.946 203.769 279.946 203.326C279.946 202.883 279.598 202.523 279.17 202.523Z" fill="#F5F5F5"/>
<path d="M271.716 198.77H270.303C269.875 198.77 269.527 199.129 269.527 199.572C269.527 200.015 269.875 200.374 270.303 200.374H271.716C272.145 200.374 272.492 200.015 272.492 199.572C272.492 199.129 272.145 198.77 271.716 198.77Z" fill="#F5F5F5"/>
<path d="M287.872 198.77H286.459C286.031 198.77 285.684 199.129 285.684 199.572C285.684 200.015 286.031 200.374 286.459 200.374H287.872C288.301 200.374 288.648 200.015 288.648 199.572C288.648 199.129 288.301 198.77 287.872 198.77Z" fill="#F5F5F5"/>
<path d="M292.455 198.77H291.041C290.613 198.77 290.266 199.129 290.266 199.572C290.266 200.015 290.613 200.374 291.041 200.374H292.455C292.883 200.374 293.23 200.015 293.23 199.572C293.23 199.129 292.883 198.77 292.455 198.77Z" fill="#F5F5F5"/>
<path d="M283.48 198.902H274.698C274.269 198.902 273.922 199.262 273.922 199.705C273.922 200.148 274.269 200.507 274.698 200.507H283.48C283.909 200.507 284.256 200.148 284.256 199.705C284.256 199.262 283.909 198.902 283.48 198.902Z" fill="#F5F5F5"/>
<path d="M251.273 252.075L244.639 241.231L265.461 224.064L274.056 214.216C275.173 212.937 276.594 211.983 278.179 211.45C279.764 210.917 281.456 210.823 283.087 211.178C284.718 211.533 286.23 212.325 287.472 213.474C288.714 214.623 289.643 216.089 290.166 217.725C290.94 220.15 290.774 222.792 289.701 225.092C288.628 227.393 286.733 229.172 284.416 230.055L270.825 235.233L251.273 252.075Z" fill="#FFB6B6"/>
<path d="M95.6191 173.444V226.154H131.324V173.444C131.325 173.065 131.208 172.696 130.99 172.391C130.773 172.085 130.467 171.86 130.117 171.748C129.951 171.692 129.779 171.664 129.605 171.666H97.3435C97.1174 171.666 96.8933 171.711 96.6842 171.8C96.4752 171.89 96.2851 172.02 96.125 172.186C95.9648 172.351 95.8377 172.547 95.7509 172.763C95.6641 172.979 95.6194 173.21 95.6191 173.444ZM109.553 191.555C109.563 190.516 109.968 189.523 110.682 188.792C111.396 188.06 112.36 187.65 113.365 187.65C114.37 187.65 115.334 188.06 116.047 188.792C116.761 189.523 117.167 190.516 117.176 191.555V197.671C117.171 198.713 116.767 199.711 116.053 200.446C115.339 201.181 114.372 201.593 113.365 201.593C112.357 201.593 111.391 201.181 110.676 200.446C109.962 199.711 109.558 198.713 109.553 197.671V191.555Z" fill="#2F2E41"/>
<path d="M95.5059 224.467V229.55C95.5067 229.813 95.6078 230.065 95.7874 230.252C95.9669 230.439 96.2104 230.544 96.4649 230.547H130.47C130.725 230.545 130.969 230.44 131.149 230.253C131.329 230.066 131.429 229.813 131.429 229.55V224.467H95.5059Z" fill="#3F3D56"/>
<path d="M39.4512 94.0304V190.27C39.4521 191.497 39.9236 192.672 40.7622 193.54C41.6007 194.407 42.7377 194.895 43.9236 194.896H181.824C183.01 194.895 184.147 194.407 184.985 193.54C185.824 192.672 186.295 191.497 186.296 190.27V94.0304C186.293 92.8051 185.821 91.6308 184.983 90.7648C184.144 89.8988 183.008 89.4117 181.824 89.4102H43.9236C42.7388 89.4117 41.6028 89.8988 40.7645 90.7648C39.9263 91.6308 39.454 92.8051 39.4512 94.0304Z" fill="#3F3D56"/>
<path d="M42.6855 95.2291V189.084C42.6866 189.739 42.9388 190.368 43.3868 190.831C43.8349 191.294 44.4422 191.555 45.0758 191.556H180.675C181.309 191.555 181.916 191.294 182.364 190.831C182.812 190.368 183.064 189.739 183.065 189.084V95.2291C183.065 94.5731 182.814 93.9438 182.365 93.4794C181.917 93.015 181.309 92.7534 180.675 92.752H45.0758C44.4414 92.7534 43.8335 93.015 43.3854 93.4794C42.9373 93.9438 42.6856 94.5731 42.6855 95.2291Z" fill="#F5F5F5"/>
<path d="M67.8474 230.202C67.9855 230.381 68.1609 230.526 68.3606 230.624C68.5602 230.723 68.779 230.774 69.0003 230.773H149.673C149.894 230.772 150.112 230.721 150.311 230.623C150.51 230.525 150.685 230.382 150.824 230.205C150.963 230.027 151.062 229.82 151.114 229.599C151.166 229.377 151.169 229.146 151.124 228.923L149.872 222.771C149.82 222.52 149.708 222.286 149.547 222.092C149.385 221.897 149.179 221.747 148.948 221.655C148.78 221.587 148.601 221.553 148.421 221.553H70.2476C70.0674 221.553 69.8887 221.587 69.7209 221.655C69.4891 221.747 69.2831 221.897 69.1217 222.092C68.9602 222.286 68.8485 222.52 68.7966 222.771L67.5443 228.923C67.4998 229.146 67.5038 229.376 67.5563 229.598C67.6087 229.819 67.7082 230.026 67.8474 230.202Z" fill="#2F2E41"/>
<path d="M176.272 105.68H49.3919C49.26 105.677 49.1345 105.621 49.0423 105.524C48.9501 105.426 48.8984 105.295 48.8984 105.159C48.8984 105.022 48.9501 104.891 49.0423 104.794C49.1345 104.696 49.26 104.64 49.3919 104.637H176.272C176.403 104.64 176.529 104.696 176.621 104.794C176.713 104.891 176.765 105.022 176.765 105.159C176.765 105.295 176.713 105.426 176.621 105.524C176.529 105.621 176.403 105.677 176.272 105.68Z" fill="#3F3D56"/>
<path d="M58.0293 101.971C59.6624 101.971 60.9862 100.572 60.9862 98.845C60.9862 97.1184 59.6624 95.7188 58.0293 95.7188C56.3962 95.7188 55.0723 97.1184 55.0723 98.845C55.0723 100.572 56.3962 101.971 58.0293 101.971Z" fill="#3F3D56"/>
<path d="M68.246 101.971C69.8791 101.971 71.203 100.572 71.203 98.845C71.203 97.1184 69.8791 95.7188 68.246 95.7188C66.6129 95.7188 65.2891 97.1184 65.2891 98.845C65.2891 100.572 66.6129 101.971 68.246 101.971Z" fill="#3F3D56"/>
<path d="M78.457 101.971C80.0901 101.971 81.414 100.572 81.414 98.845C81.414 97.1184 80.0901 95.7188 78.457 95.7188C76.8239 95.7188 75.5 97.1184 75.5 98.845C75.5 100.572 76.8239 101.971 78.457 101.971Z" fill="#3F3D56"/>
<path d="M170.122 96.4922H162.867C162.723 96.4956 162.587 96.557 162.486 96.6631C162.386 96.7692 162.33 96.9117 162.33 97.0601C162.33 97.2084 162.386 97.3509 162.486 97.4571C162.587 97.5632 162.723 97.6245 162.867 97.628H170.122C170.266 97.6259 170.404 97.5651 170.505 97.4588C170.606 97.3526 170.663 97.2093 170.663 97.0601C170.663 96.9108 170.606 96.7676 170.505 96.6613C170.404 96.5551 170.266 96.4943 170.122 96.4922Z" fill="#3F3D56"/>
<path d="M170.122 98.625H162.867C162.724 98.6283 162.587 98.6896 162.487 98.7957C162.386 98.9018 162.33 99.0444 162.33 99.1929C162.33 99.3414 162.386 99.484 162.487 99.5901C162.587 99.6962 162.724 99.7575 162.867 99.7608H170.122C170.267 99.759 170.405 99.6984 170.507 99.5921C170.608 99.4858 170.665 99.3423 170.665 99.1929C170.665 99.0435 170.608 98.9 170.507 98.7937C170.405 98.6874 170.267 98.6268 170.122 98.625Z" fill="#3F3D56"/>
<path d="M170.122 100.758H162.867C162.723 100.761 162.587 100.823 162.486 100.929C162.386 101.035 162.33 101.177 162.33 101.326C162.33 101.474 162.386 101.617 162.486 101.723C162.587 101.829 162.723 101.89 162.867 101.894H170.122C170.266 101.892 170.404 101.831 170.505 101.724C170.606 101.618 170.663 101.475 170.663 101.326C170.663 101.176 170.606 101.033 170.505 100.927C170.404 100.821 170.266 100.76 170.122 100.758Z" fill="#3F3D56"/>
<path d="M345.034 226.698C345.253 227.357 345.668 227.928 346.22 228.327C346.772 228.727 347.433 228.936 348.107 228.924L361.271 228.573C361.95 228.56 362.607 228.319 363.142 227.888C363.678 227.456 364.064 226.857 364.244 226.18L366.107 205.578C366.767 205.887 367.487 206.04 368.213 206.025C368.843 206.009 369.464 205.864 370.04 205.6C370.616 205.335 371.137 204.956 371.571 204.483C372.006 204.011 372.346 203.454 372.572 202.846C372.799 202.237 372.907 201.589 372.892 200.937C372.876 200.285 372.736 199.643 372.48 199.047C372.224 198.451 371.857 197.913 371.401 197.463C370.944 197.014 370.406 196.662 369.817 196.428C369.229 196.193 368.602 196.081 367.972 196.098C367.682 196.097 367.392 196.128 367.109 196.19C366.8 195.845 366.426 195.571 366.008 195.385C365.591 195.199 365.141 195.105 364.687 195.11L344.436 195.65C344.268 195.657 344.101 195.678 343.937 195.715C343.493 195.8 343.071 195.983 342.701 196.251C342.331 196.519 342.021 196.866 341.792 197.269C341.562 197.671 341.419 198.12 341.371 198.584C341.323 199.049 341.373 199.519 341.515 199.962L345.034 226.698ZM366.489 204.179L367.814 199.269C367.965 198.702 367.968 198.104 367.824 197.535C367.889 197.535 367.945 197.503 368.01 197.503C368.919 197.484 369.798 197.838 370.455 198.488C371.112 199.138 371.493 200.031 371.514 200.971C371.535 201.911 371.195 202.821 370.568 203.502C369.942 204.183 369.079 204.58 368.171 204.604C367.583 204.623 367.001 204.476 366.489 204.179Z" fill="#2F2E41"/>
<path d="M343.934 195.715C344.365 198.266 349.216 200.06 355.048 199.748C360.411 199.493 364.797 197.545 365.6 195.237C365.303 195.146 364.994 195.103 364.684 195.11L344.433 195.651C344.265 195.657 344.098 195.679 343.934 195.715Z" fill="#3F3D56"/>
<path d="M356.118 215.377C356.145 215.37 356.17 215.358 356.193 215.343L359.052 213.407C359.087 213.384 359.115 213.352 359.135 213.315C359.154 213.277 359.165 213.235 359.165 213.192C359.165 213.15 359.154 213.108 359.135 213.07C359.115 213.033 359.087 213.001 359.052 212.977L356.081 210.965C356.053 210.946 356.023 210.933 355.991 210.927C355.959 210.92 355.926 210.92 355.894 210.927C355.862 210.934 355.831 210.947 355.804 210.966C355.777 210.985 355.754 211.01 355.736 211.038C355.718 211.066 355.706 211.098 355.7 211.131C355.694 211.164 355.694 211.198 355.701 211.232C355.707 211.265 355.72 211.296 355.739 211.324C355.757 211.352 355.781 211.376 355.808 211.394L358.463 213.192L355.921 214.913C355.872 214.946 355.836 214.996 355.819 215.054C355.802 215.113 355.806 215.175 355.83 215.231C355.853 215.287 355.895 215.332 355.948 215.358C356.001 215.385 356.061 215.392 356.118 215.377Z" fill="#FF725E"/>
<path d="M351.604 215.591C351.652 215.578 351.695 215.551 351.728 215.513C351.761 215.475 351.782 215.427 351.789 215.377C351.796 215.326 351.788 215.274 351.766 215.228C351.744 215.182 351.71 215.144 351.667 215.119L349.031 213.556L351.578 211.6C351.605 211.58 351.627 211.554 351.643 211.525C351.66 211.496 351.671 211.464 351.676 211.431C351.681 211.398 351.679 211.364 351.671 211.331C351.663 211.298 351.649 211.267 351.63 211.24C351.61 211.213 351.586 211.19 351.558 211.173C351.53 211.156 351.499 211.144 351.467 211.139C351.434 211.135 351.401 211.136 351.37 211.144C351.338 211.153 351.308 211.167 351.282 211.187L348.431 213.378C348.397 213.404 348.371 213.437 348.353 213.476C348.336 213.514 348.328 213.557 348.331 213.599C348.333 213.642 348.346 213.683 348.367 213.72C348.389 213.756 348.419 213.786 348.455 213.807L351.419 215.565C351.475 215.598 351.541 215.607 351.604 215.591Z" fill="#FF725E"/>
<path d="M355.837 217.073C355.861 217.066 355.884 217.056 355.905 217.043C355.933 217.025 355.957 217.002 355.976 216.975C355.996 216.948 356.009 216.917 356.017 216.884C356.025 216.851 356.026 216.817 356.021 216.784C356.016 216.751 356.005 216.719 355.988 216.69L351.935 209.799C351.901 209.741 351.846 209.699 351.782 209.683C351.718 209.667 351.65 209.678 351.594 209.713C351.538 209.749 351.497 209.806 351.482 209.872C351.466 209.938 351.477 210.008 351.511 210.066L355.563 216.957C355.591 217.004 355.633 217.041 355.682 217.061C355.731 217.082 355.785 217.086 355.837 217.073Z" fill="#FF725E"/>
<path d="M127.994 134.049H106.034C105.138 134.049 104.412 134.8 104.412 135.726V137.945C104.412 138.872 105.138 139.623 106.034 139.623H127.994C128.89 139.623 129.616 138.872 129.616 137.945V135.726C129.616 134.8 128.89 134.049 127.994 134.049Z" fill="#92E3A9"/>
<path d="M140.792 145.197H93.2315C92.3356 145.197 91.6094 145.948 91.6094 146.875V149.094C91.6094 150.02 92.3356 150.771 93.2315 150.771H140.792C141.688 150.771 142.414 150.02 142.414 149.094V146.875C142.414 145.948 141.688 145.197 140.792 145.197Z" fill="#E6E6E6"/>
<path d="M140.792 156.344H93.2315C92.3356 156.344 91.6094 157.095 91.6094 158.021V160.24C91.6094 161.167 92.3356 161.918 93.2315 161.918H140.792C141.688 161.918 142.414 161.167 142.414 160.24V158.021C142.414 157.095 141.688 156.344 140.792 156.344Z" fill="#E6E6E6"/>
<path d="M144.826 193.675L144.934 194.027L144.94 194.038L148.182 204.234L151.912 215.983L158.93 238.062L158.998 241.492V241.504L159.52 269.094L158.074 272.835L159.701 278.967C159.701 278.967 158.953 269.697 154.939 275.021C152.666 278.046 150.008 281.142 147.825 284.044C151.005 285.375 154.237 286.578 157.519 287.655C158.227 287.89 158.942 288.113 159.656 288.335C159.809 288.382 159.962 288.429 160.115 288.476C170.995 291.804 182.244 293.674 193.584 294.04C194.174 294.057 194.752 294.069 195.313 294.081C195.512 294.087 195.704 294.093 195.897 294.093C196.532 294.098 197.161 294.104 197.796 294.104C199.077 294.104 200.353 294.085 201.623 294.046C211.021 293.772 220.365 292.465 229.497 290.147C229.434 286.248 229.264 281.693 229.021 276.827C228.907 274.44 226.362 271.855 226.209 269.357C226.101 267.481 228.386 265.717 228.267 263.811C227.496 252.08 226.532 256.583 225.818 248.275C225.744 247.46 225.676 246.681 225.614 245.936C225.154 240.601 224.837 237.265 224.837 237.265L227.887 217.384L232.677 186.171L232.309 185.543L231.895 185.332L206.628 172.399L205.257 168.764C204.857 167.717 204.163 166.817 203.265 166.181C202.367 165.545 201.306 165.201 200.217 165.193L183.573 165.123C182.709 165.119 181.857 165.328 181.087 165.733C180.317 166.138 179.652 166.727 179.146 167.451L174.639 173.906L144.826 193.675Z" fill="#3F3D56"/>
<path d="M162.77 233.149L159 241.492L156.426 247.191L151.999 271.164L149.782 273.597L147.883 264.984L128.007 269.548C127.355 265.802 127.832 269.675 127.43 265.565C127.543 265.448 127.662 265.33 127.781 265.213C128.099 264.908 128.365 264.621 128.359 264.345C128.133 250.169 128.813 226.044 134.493 211.428C135.383 209.041 136.556 206.778 137.985 204.691C138.099 204.533 138.206 204.375 138.314 204.216C140.933 200.423 142.588 196.688 144.935 194.033V194.027C144.95 194.015 144.963 194.001 144.975 193.986C144.983 193.981 144.991 193.975 144.998 193.968L161.12 185.127L161.812 205.225L162.305 219.671L162.77 233.149Z" fill="#3F3D56"/>
<path d="M220.898 235.519L225.607 245.939L227.251 249.568L231.677 273.539L233.886 275.966L235.79 267.355L236.684 267.165L252.814 263.71L257.515 279.152C258.575 277.326 258.992 275.178 258.697 273.07C258.402 270.963 257.412 269.025 255.895 267.586C255.574 267.285 255.306 266.993 255.314 266.716C255.581 250.042 254.595 219.596 245.689 207.066C242.861 203.089 241.164 199.128 238.695 196.361C238.687 196.353 238.687 196.345 238.679 196.345L232.671 186.17L232.304 185.545L231.891 185.332L220.898 235.519Z" fill="#3F3D56"/>
<path d="M192.373 160.224C204.602 160.224 214.516 149.971 214.516 137.324C214.516 124.677 204.602 114.424 192.373 114.424C180.144 114.424 170.23 124.677 170.23 137.324C170.23 149.971 180.144 160.224 192.373 160.224Z" fill="#FFB6B6"/>
<path d="M222.301 121.329C222.129 121.139 221.923 120.987 221.693 120.882C221.463 120.777 221.215 120.721 220.964 120.717L221.297 119.761C221.406 119.46 221.435 119.135 221.382 118.818C221.329 118.501 221.196 118.205 220.995 117.959C220.795 117.713 220.535 117.527 220.243 117.419C219.95 117.312 219.635 117.286 219.329 117.346L218.117 117.587L218.231 116.75C218.275 116.438 218.239 116.119 218.128 115.826C218.017 115.532 217.834 115.274 217.597 115.076C217.359 114.877 217.076 114.747 216.776 114.696C216.475 114.645 216.166 114.676 215.881 114.786C215.621 114.892 215.341 114.937 215.063 114.916C214.784 114.896 214.513 114.811 214.27 114.668C214.027 114.53 213.815 114.338 213.65 114.107C213.485 113.875 213.371 113.609 213.316 113.327L212.894 111.22L212.849 111.107C210.792 107.56 206.836 104.98 201.996 104.035C197.688 103.187 193.27 103.619 189.011 104.025C187.322 104.189 185.413 104.374 183.823 105.381C182.471 106.245 181.329 107.972 181.562 109.714C177.363 108.383 172.861 111.04 170.629 114.391C167.986 118.379 167.553 123.374 167.484 127.28C167.295 136.521 169.139 144.081 172.95 149.755C173.228 150.166 173.298 151.024 173.85 151.312L173.735 151.122C174.352 151.44 174.978 151.954 174.744 152.504C174.073 154.087 178.531 157.587 181.671 158.743C187.401 160.856 195.019 160.676 200.376 159.915L200.565 158.605C202.498 158.332 203.86 157.813 204.242 157.001C204.918 156.405 205.495 155.87 205.996 155.377L206.001 155.372C206.011 155.362 206.031 155.346 206.041 155.336C208.461 152.936 209.023 151.569 209.276 149.487C209.52 147.447 209.087 145.376 208.645 143.51C217.958 145.001 204.978 133.252 213.654 130.981C213.754 130.949 213.855 130.923 213.957 130.903C214.211 130.842 214.464 130.78 214.708 130.708C215.882 130.379 217.005 129.882 218.047 129.233C220.472 127.707 221.272 125.682 222.525 123.4C222.705 123.075 222.781 122.699 222.741 122.327C222.701 121.954 222.547 121.605 222.301 121.329Z" fill="#2F2E41"/>
<path d="M270.693 237.149C270.688 238.048 270.678 239.307 270.638 240.864C270.633 241.08 270.628 241.301 270.623 241.527C270.559 244.39 270.494 246.79 270.39 249.457C270.385 249.643 270.38 249.822 270.37 250.007C270.231 253.728 270.012 258.061 269.635 264.922C268.934 277.596 267.711 266.664 266.484 271.11C266.424 271.331 266.36 271.593 266.3 271.901C266.114 273.02 265.801 274.112 265.366 275.154C264.715 275.555 264.044 275.941 263.383 276.326C261.5 277.411 259.586 278.454 257.658 279.446C256.575 280.001 255.487 280.546 254.394 281.07C254.22 281.152 254.051 281.234 253.882 281.311C248.283 283.989 242.513 286.266 236.613 288.126C235.46 288.486 234.312 288.835 233.149 289.159C231.937 289.509 230.724 289.837 229.497 290.146C220.366 292.464 211.022 293.772 201.624 294.047C200.357 294.088 199.079 294.103 197.797 294.103C197.161 294.103 196.535 294.098 195.899 294.093C195.705 294.093 195.511 294.088 195.318 294.083C194.756 294.067 194.175 294.057 193.588 294.041C182.248 293.676 170.999 291.805 160.12 288.476L159.657 288.337C158.942 288.111 158.231 287.89 157.521 287.653C154.241 286.579 151.009 285.377 147.825 284.045C145.395 283.033 142.993 281.947 140.62 280.787C140.598 280.781 140.578 280.771 140.56 280.756C140.063 280.52 139.561 280.273 139.064 280.021C139 279.985 138.93 279.949 138.861 279.913C137.007 278.978 135.173 277.998 133.359 276.974C131.834 273.35 129.687 272.657 128.355 269.47C127.968 268.524 127.688 267.534 127.52 266.52C127.52 266.51 127.516 266.5 127.516 266.484C127.655 268.396 126.924 263.092 127.511 266.464C127.506 266.402 127.501 266.335 127.496 266.258C127.481 266.073 127.461 265.847 127.431 265.564C125.727 248.353 125.836 228.669 125.095 212.449C125.046 211.401 124.994 210.397 124.941 209.437C124.926 209.119 124.907 208.805 124.887 208.497C124.922 208.404 124.961 208.307 125.006 208.214C125.015 208.187 125.027 208.162 125.041 208.137C125.055 208.105 125.072 208.074 125.09 208.045C125.1 208.029 125.115 208.009 125.125 207.993C125.133 207.975 125.141 207.958 125.15 207.942C125.195 207.87 125.245 207.793 125.299 207.721C125.324 207.69 125.344 207.664 125.369 207.639C125.386 207.612 125.406 207.588 125.428 207.567C125.444 207.542 125.462 207.519 125.483 207.5C125.503 207.479 125.523 207.454 125.548 207.428C125.558 207.412 125.572 207.398 125.587 207.387C125.627 207.34 125.67 207.297 125.717 207.258C125.894 207.09 126.083 206.935 126.283 206.796C126.353 206.749 126.427 206.703 126.497 206.652C126.998 206.342 127.525 206.08 128.072 205.871C128.261 205.799 128.45 205.732 128.653 205.66C128.728 205.639 128.798 205.614 128.872 205.588C128.981 205.552 129.091 205.516 129.205 205.49C129.772 205.316 130.383 205.166 131.044 205.028C131.123 205.012 131.208 204.997 131.292 204.976C131.411 204.951 131.536 204.93 131.66 204.91C131.829 204.879 132.003 204.848 132.177 204.817C133.653 204.575 135.327 204.396 137.176 204.277C137.35 204.267 137.524 204.257 137.698 204.247C137.902 204.236 138.105 204.226 138.314 204.216C138.488 204.205 138.667 204.2 138.846 204.195C139.02 204.185 139.198 204.18 139.382 204.175C139.884 204.159 140.401 204.144 140.928 204.133C142.429 204.103 144.009 204.113 145.669 204.149C146.439 204.169 147.224 204.19 148.029 204.226C148.084 204.226 148.133 204.231 148.183 204.231C148.884 204.257 149.589 204.288 150.315 204.329C150.822 204.354 151.334 204.38 151.846 204.411C152.328 204.442 152.815 204.473 153.307 204.509C153.689 204.529 154.072 204.56 154.459 204.586C154.787 204.611 155.115 204.637 155.443 204.658L155.891 204.689C156.134 204.709 156.378 204.725 156.626 204.75C157.173 204.796 157.719 204.843 158.276 204.889C158.828 204.94 159.389 204.992 159.951 205.043C160.512 205.095 161.079 205.151 161.645 205.208C161.705 205.213 161.759 205.218 161.814 205.223C162.331 205.28 162.848 205.331 163.37 205.387C163.489 205.398 163.613 205.408 163.732 205.423C164.23 205.475 164.737 205.536 165.239 205.591C165.393 205.608 165.546 205.625 165.701 205.642C166.094 205.686 166.482 205.725 166.878 205.773C167.4 205.835 167.931 205.891 168.448 205.963C168.851 206.009 169.253 206.056 169.656 206.107C170.287 206.184 170.928 206.266 171.569 206.354C171.812 206.385 172.056 206.415 172.299 206.451C174.128 206.688 175.977 206.95 177.855 207.222C180.703 207.639 183.595 208.091 186.507 208.579C189.424 209.067 192.357 209.583 195.308 210.126C196.053 210.265 196.798 210.404 197.549 210.547C197.887 210.614 198.225 210.681 198.563 210.748C199.139 210.856 199.715 210.969 200.292 211.082C200.868 211.195 201.445 211.308 202.021 211.426C202.707 211.565 203.398 211.704 204.084 211.843C208.601 212.768 213.093 213.754 217.476 214.787C218.197 214.957 218.917 215.132 219.633 215.301C221.064 215.646 222.482 215.995 223.886 216.35C224.274 216.442 224.657 216.54 225.039 216.638C225.993 216.884 226.948 217.131 227.887 217.383L228.051 217.429C228.742 217.604 229.417 217.784 230.093 217.969C231.688 218.4 233.257 218.837 234.799 219.279C235.823 219.572 236.835 219.868 237.836 220.168C239.331 220.615 240.797 221.068 242.223 221.525C242.576 221.638 242.929 221.751 243.277 221.859C244.321 222.193 245.349 222.532 246.348 222.872C247.143 223.139 247.918 223.411 248.684 223.684C249.449 223.956 250.199 224.228 250.935 224.501C251.407 224.675 251.874 224.861 252.341 225.035C253.012 225.292 253.673 225.549 254.319 225.806C254.518 225.883 254.711 225.965 254.905 226.043C255.03 226.099 255.149 226.145 255.268 226.197C255.502 226.294 255.74 226.387 255.969 226.485C256.202 226.577 256.431 226.675 256.659 226.777C256.883 226.87 257.112 226.968 257.33 227.065C257.554 227.158 257.773 227.255 257.991 227.358C258.175 227.435 258.354 227.518 258.528 227.6C258.881 227.759 259.234 227.918 259.577 228.083C259.745 228.165 259.914 228.242 260.083 228.324L260.471 228.509C260.526 228.54 260.58 228.566 260.635 228.592C260.759 228.653 260.888 228.72 261.013 228.782C261.301 228.921 261.584 229.07 261.862 229.208C262.235 229.404 262.598 229.599 262.946 229.789C263.299 229.984 263.641 230.18 263.969 230.37C264.024 230.401 264.074 230.432 264.128 230.462C264.203 230.504 264.278 230.55 264.352 230.591C264.605 230.74 264.849 230.894 265.092 231.043C265.57 231.346 266.022 231.644 266.444 231.943C266.539 232.009 266.628 232.076 266.722 232.138C267.035 232.369 267.334 232.595 267.612 232.826C267.612 232.832 267.612 232.832 267.617 232.832C267.711 232.904 267.801 232.981 267.89 233.053C267.965 233.125 268.044 233.186 268.119 233.258C268.377 233.489 268.616 233.71 268.834 233.937C268.908 234.006 268.977 234.08 269.043 234.158C269.072 234.182 269.099 234.21 269.123 234.24C269.222 234.343 269.311 234.445 269.396 234.548C269.409 234.562 269.421 234.578 269.431 234.594C269.55 234.738 269.659 234.882 269.764 235.026C269.813 235.098 269.868 235.17 269.913 235.242C269.972 235.329 270.032 235.422 270.082 235.509C270.126 235.581 270.166 235.658 270.206 235.73C270.311 235.915 270.401 236.11 270.474 236.311C270.53 236.447 270.575 236.588 270.608 236.732C270.646 236.869 270.674 237.008 270.693 237.149Z" fill="#2F2E41"/>
<path opacity="0.2" d="M270.692 237.151C270.687 238.05 270.677 239.309 270.637 240.866C270.632 241.082 270.623 241.303 270.618 241.529C270.568 243.714 270.493 246.412 270.389 249.459C270.384 249.644 270.379 249.824 270.369 250.009C270.23 253.73 270.011 258.063 269.634 264.924C268.933 277.597 267.71 266.666 266.483 271.112C263.074 268.943 259.337 266.671 255.342 264.338C254.621 263.916 253.894 263.493 253.16 263.068C245.169 258.458 236.244 253.627 226.927 248.843C226.559 248.653 226.186 248.462 225.819 248.277C204.475 237.367 181.179 226.754 162.305 219.672C158.663 218.305 155.184 217.071 151.914 215.987C145.027 213.71 139.073 212.117 134.492 211.428C129.721 210.709 126.426 210.966 125.095 212.451C125.045 211.402 124.993 210.399 124.94 209.439C124.921 209.121 124.901 208.807 124.881 208.499C124.912 208.414 124.951 208.333 124.99 208.252C124.995 208.24 124.999 208.228 125.005 208.216C125.015 208.189 125.026 208.164 125.04 208.139C125.055 208.107 125.071 208.076 125.09 208.046C125.106 208.01 125.126 207.976 125.149 207.944C125.194 207.872 125.244 207.795 125.298 207.723C125.338 207.669 125.382 207.617 125.427 207.568C125.443 207.544 125.461 207.521 125.482 207.502C125.502 207.481 125.522 207.455 125.547 207.43C125.557 207.414 125.571 207.4 125.587 207.389C125.626 207.342 125.669 207.299 125.716 207.26C125.893 207.091 126.082 206.937 126.282 206.798C126.352 206.751 126.426 206.705 126.496 206.654C126.997 206.344 127.524 206.082 128.071 205.872C128.26 205.801 128.449 205.734 128.653 205.662C128.727 205.641 128.797 205.616 128.871 205.59C128.981 205.554 129.09 205.518 129.204 205.492C129.771 205.317 130.382 205.168 131.043 205.03C131.242 204.989 131.45 204.947 131.659 204.911C131.828 204.881 132.002 204.85 132.176 204.819C133.652 204.577 135.326 204.397 137.175 204.279C137.349 204.269 137.523 204.259 137.697 204.248C137.901 204.238 138.104 204.228 138.313 204.218C138.487 204.207 138.666 204.202 138.845 204.197C139.019 204.187 139.198 204.182 139.381 204.176C139.883 204.161 140.4 204.146 140.927 204.135C142.428 204.11 144.008 204.12 145.668 204.156C146.438 204.171 147.223 204.197 148.028 204.233C148.078 204.233 148.133 204.238 148.182 204.238C148.883 204.259 149.594 204.295 150.314 204.331C150.821 204.356 151.333 204.382 151.845 204.413C152.327 204.444 152.814 204.475 153.306 204.511C153.688 204.531 154.071 204.562 154.459 204.588C154.786 204.613 155.114 204.639 155.442 204.66C155.835 204.69 156.228 204.721 156.625 204.752C157.172 204.798 157.718 204.845 158.275 204.891C158.827 204.942 159.388 204.994 159.95 205.045C160.511 205.096 161.078 205.153 161.644 205.209C161.704 205.215 161.759 205.22 161.813 205.225C162.33 205.281 162.847 205.333 163.369 205.389C166.261 205.693 169.237 206.047 172.299 206.453C174.127 206.695 175.979 206.953 177.854 207.229C180.702 207.646 183.594 208.098 186.506 208.581C189.423 209.069 192.357 209.585 195.307 210.128C196.052 210.267 196.798 210.405 197.548 210.549C198.462 210.724 199.377 210.902 200.291 211.084C200.867 211.197 201.444 211.31 202.02 211.428C202.706 211.567 203.397 211.706 204.083 211.844C208.6 212.77 213.092 213.756 217.475 214.789C218.196 214.959 218.916 215.134 219.632 215.303C221.063 215.648 222.481 215.997 223.886 216.352C224.273 216.449 224.656 216.547 225.038 216.645C225.998 216.891 226.947 217.138 227.886 217.385V217.39C227.941 217.4 227.995 217.415 228.05 217.431C228.736 217.611 229.416 217.791 230.092 217.976C231.688 218.407 233.256 218.843 234.798 219.281C235.822 219.579 236.836 219.872 237.835 220.17C239.33 220.622 240.796 221.075 242.223 221.527C242.575 221.64 242.928 221.753 243.276 221.861C244.32 222.2 245.343 222.538 246.347 222.873C247.142 223.141 247.917 223.413 248.683 223.686C249.448 223.958 250.198 224.23 250.934 224.503C251.411 224.677 251.878 224.857 252.34 225.032C253.016 225.289 253.672 225.546 254.318 225.808C254.517 225.885 254.711 225.967 254.904 226.044C255.267 226.188 255.62 226.337 255.968 226.486C256.201 226.579 256.43 226.677 256.659 226.779C256.882 226.872 257.111 226.97 257.329 227.067C257.553 227.16 257.772 227.257 257.99 227.36C258.174 227.437 258.353 227.519 258.527 227.602C258.88 227.761 259.233 227.92 259.576 228.085C259.745 228.167 259.914 228.244 260.083 228.326L260.47 228.511C260.525 228.542 260.579 228.568 260.634 228.594C261.056 228.799 261.464 229.005 261.862 229.21C262.234 229.406 262.597 229.601 262.945 229.791C263.357 230.017 263.75 230.238 264.128 230.464C264.202 230.505 264.277 230.552 264.351 230.593C264.605 230.742 264.848 230.896 265.092 231.045C265.569 231.348 266.021 231.646 266.443 231.944C266.861 232.243 267.248 232.535 267.611 232.828C267.611 232.834 267.611 232.834 267.616 232.834C267.79 232.977 267.959 233.121 268.118 233.26C268.376 233.491 268.615 233.712 268.834 233.939C268.907 234.008 268.977 234.082 269.042 234.159C269.071 234.184 269.098 234.212 269.122 234.242C269.226 234.36 269.33 234.478 269.43 234.596C269.549 234.74 269.658 234.884 269.763 235.028C269.813 235.1 269.867 235.172 269.912 235.244C269.972 235.331 270.031 235.424 270.081 235.511C270.126 235.583 270.165 235.66 270.205 235.732C270.311 235.917 270.4 236.112 270.473 236.313C270.528 236.45 270.573 236.591 270.608 236.734C270.645 236.871 270.674 237.01 270.692 237.151Z" fill="black"/>
</g>
<defs>
<clipPath id="clip0_257_5759">
<rect width="391" height="265" fill="white" transform="translate(0.359375)"/>
</clipPath>
</defs>
</svg>
