<svg width="223" height="53" viewBox="0 0 223 53" fill="none" xmlns="http://www.w3.org/2000/svg">
<path d="M108.922 25.5388C106.922 24.308 105.384 22.7695 104.153 20.7695C102.922 18.7695 102.461 16.4618 102.461 14.0003C102.461 11.5388 103.076 9.2311 104.153 7.2311C105.384 5.23106 106.922 3.53874 108.922 2.46182C110.922 1.23105 113.076 0.769531 115.538 0.769531C117.385 0.769531 119.231 1.0772 120.769 1.69259C122.461 2.30797 123.692 3.23106 124.769 4.46182L122.615 6.6157C121.846 5.69258 120.769 4.92335 119.538 4.30797C118.308 3.84643 116.923 3.53874 115.538 3.53874C113.692 3.53874 112.153 4.00028 110.615 4.76951C109.076 5.69259 107.846 6.9234 106.923 8.4618C105.999 10.0003 105.538 11.8465 105.538 13.8465C105.538 15.8465 105.999 17.6926 106.923 19.2311C107.846 20.7695 109.076 22.0003 110.615 22.9234C112.153 23.8464 113.846 24.1541 115.538 24.1541C117.231 24.1541 118.615 23.8464 119.846 23.3849C120.923 22.9233 122 22.1541 122.769 21.231C123.384 20.6157 123.846 19.6926 124.308 18.7695C124.615 17.8464 124.923 16.7695 124.923 15.6926H115.538V12.9234H127.692C127.846 13.5387 127.846 14.1542 127.846 14.7695C127.846 16.308 127.538 17.8465 127.077 19.3849C126.615 20.9234 125.846 22.1542 124.769 23.2311C122.308 25.6926 119.231 27.0772 115.384 27.0772C113.076 27.2311 110.922 26.7695 108.922 25.5388Z" fill="#656C73"/>
<path d="M130.691 1.38477H138.384C140.999 1.38477 143.307 2.00016 145.153 2.92323C147.153 4.00016 148.538 5.53861 149.614 7.38476C150.691 9.23096 151.153 11.5387 151.153 14.0002C151.153 16.4618 150.691 18.6156 149.614 20.6156C148.538 22.4617 147.153 24.0002 145.153 25.0771C143.153 26.154 140.999 26.6156 138.384 26.6156H130.691V1.38477ZM138.384 23.8464C141.307 23.8464 143.768 22.9233 145.461 21.231C147.153 19.5386 148.076 17.0771 148.076 14.0002C148.076 10.9233 147.153 8.46166 145.461 6.76936C143.768 5.07708 141.307 4.15401 138.384 4.15401H133.768V23.8464H138.384Z" fill="#656C73"/>
<path d="M160 25.5388C158 24.308 156.462 22.7695 155.231 20.7695C154 18.7695 153.539 16.4618 153.539 14.0003C153.539 11.5388 154.154 9.2311 155.231 7.2311C156.462 5.23106 158 3.53874 160 2.46182C162 1.23105 164.154 0.769531 166.616 0.769531C168.462 0.769531 170.308 1.0772 171.846 1.69259C173.539 2.30797 174.769 3.23106 175.846 4.46182L173.692 6.6157C172.923 5.69258 171.846 4.92335 170.616 4.30797C169.385 3.84643 168 3.53874 166.616 3.53874C164.769 3.53874 163.231 4.00028 161.693 4.76951C160.154 5.69259 158.923 6.9234 158 8.4618C157.077 10.0003 156.616 11.8465 156.616 13.8465C156.616 15.8465 157.077 17.6926 158 19.2311C158.923 20.7695 160.154 22.0003 161.693 22.9234C163.231 23.8464 164.923 24.1541 166.616 24.1541C168.308 24.1541 169.693 23.8464 170.923 23.3849C172 22.9233 173.077 22.1541 173.846 21.231C174.462 20.6157 174.923 19.6926 175.385 18.7695C175.692 17.8464 176 16.7695 176 15.6926H166.616V12.9234H178.769C178.923 13.5387 178.923 14.1542 178.923 14.7695C178.923 16.308 178.616 17.8465 178.154 19.3849C177.692 20.9234 176.923 22.1542 175.846 23.2311C173.385 25.6926 170.308 27.0772 166.462 27.0772C164.308 27.2311 162 26.7695 160 25.5388Z" fill="#656C73"/>
<path d="M21.7818 24.9801L36.4547 16.4539C39.8255 14.4711 41.0151 10.1089 39.0324 6.53982C37.0495 3.16905 32.6874 1.97935 29.1183 3.96215L3.73828 18.635L21.7818 24.9801Z" fill="#EA4335"/>
<path d="M32.6872 46.5928C35.2648 46.5928 37.6443 45.2048 38.8339 43.0236C40.8167 39.6529 39.627 35.0924 36.2562 33.1095L10.8762 18.4367C7.50544 16.454 2.94497 17.6436 0.962155 21.0144C-1.02066 24.3852 0.16906 28.9457 3.53984 30.9285L28.9198 45.6013C30.3078 46.3944 31.4975 46.5928 32.6872 46.5928Z" fill="#4285F4"/>
<path d="M57.8686 46.5923C59.0584 46.5923 60.2481 46.1957 61.4377 45.6008L86.8178 30.928L69.1708 24.3848L54.2996 32.9109C50.9288 34.8937 49.7391 39.2559 51.722 42.8249C53.1099 45.4026 55.4893 46.5923 57.8686 46.5923Z" fill="#FBBC04"/>
<path d="M83.2478 32.1181C85.8254 32.1181 88.2048 30.7302 89.3945 28.5491C91.3773 25.1783 90.1876 20.6178 86.8168 18.635L61.4368 3.96216C58.066 1.97934 53.5055 3.16904 51.5227 6.53982C49.5399 9.9106 50.7296 14.4711 54.1004 16.4539L79.4804 31.1267C80.6701 31.7215 82.0581 32.1181 83.2478 32.1181Z" fill="#0F9D58"/>
<path d="M111.576 48.256C110.477 48.256 109.48 47.9893 108.584 47.456C107.688 46.9227 106.984 46.1973 106.472 45.28C105.96 44.3627 105.704 43.36 105.704 42.272C105.704 41.184 105.96 40.1813 106.472 39.264C106.984 38.3467 107.688 37.6213 108.584 37.088C109.48 36.5547 110.477 36.288 111.576 36.288C112.675 36.288 113.672 36.5547 114.568 37.088C115.464 37.6213 116.168 38.3467 116.68 39.264C117.192 40.1813 117.448 41.184 117.448 42.272C117.448 43.36 117.192 44.3627 116.68 45.28C116.168 46.1973 115.464 46.9227 114.568 47.456C113.672 47.9893 112.675 48.256 111.576 48.256ZM111.576 46.96C112.397 46.96 113.149 46.7627 113.832 46.368C114.525 45.9627 115.069 45.408 115.464 44.704C115.869 43.9893 116.072 43.1787 116.072 42.272C116.072 41.3653 115.869 40.56 115.464 39.856C115.069 39.1413 114.525 38.5867 113.832 38.192C113.149 37.7867 112.397 37.584 111.576 37.584C110.755 37.584 109.997 37.7867 109.304 38.192C108.621 38.5867 108.077 39.1413 107.672 39.856C107.277 40.56 107.08 41.3653 107.08 42.272C107.08 43.1787 107.277 43.9893 107.672 44.704C108.077 45.408 108.621 45.9627 109.304 46.368C109.997 46.7627 110.755 46.96 111.576 46.96ZM119.07 40.064H120.366V41.248H120.43C120.654 40.8427 121.006 40.5013 121.486 40.224C121.966 39.9467 122.478 39.808 123.022 39.808C123.993 39.808 124.729 40.0907 125.23 40.656C125.742 41.2213 125.998 41.9947 125.998 42.976V48H124.654V43.184C124.654 42.416 124.478 41.8667 124.126 41.536C123.785 41.2053 123.294 41.04 122.654 41.04C122.227 41.04 121.843 41.1627 121.502 41.408C121.161 41.6533 120.894 41.9733 120.702 42.368C120.521 42.7627 120.43 43.1787 120.43 43.616V48H119.07V40.064ZM136.968 48.256C135.869 48.256 134.866 47.9947 133.96 47.472C133.053 46.9493 132.338 46.2293 131.816 45.312C131.304 44.3947 131.048 43.3813 131.048 42.272C131.048 41.1627 131.304 40.1493 131.816 39.232C132.338 38.3147 133.053 37.5947 133.96 37.072C134.866 36.5493 135.869 36.288 136.968 36.288C137.832 36.288 138.616 36.4533 139.32 36.784C140.034 37.104 140.648 37.5627 141.16 38.16L140.2 39.104C139.773 38.5813 139.293 38.1973 138.76 37.952C138.237 37.7067 137.64 37.584 136.968 37.584C136.146 37.584 135.389 37.7813 134.696 38.176C134.002 38.56 133.448 39.1093 133.032 39.824C132.626 40.528 132.424 41.344 132.424 42.272C132.424 43.2 132.626 44.0213 133.032 44.736C133.448 45.44 134.002 45.9893 134.696 46.384C135.389 46.768 136.146 46.96 136.968 46.96C138.365 46.96 139.549 46.3893 140.52 45.248L141.496 46.208C140.973 46.8373 140.322 47.3387 139.544 47.712C138.765 48.0747 137.906 48.256 136.968 48.256ZM145.427 48.256C144.851 48.256 144.329 48.144 143.859 47.92C143.401 47.6853 143.038 47.3653 142.771 46.96C142.515 46.544 142.387 46.08 142.387 45.568C142.387 44.7253 142.702 44.0693 143.331 43.6C143.971 43.1307 144.787 42.896 145.779 42.896C146.27 42.896 146.713 42.9493 147.107 43.056C147.502 43.1627 147.817 43.28 148.051 43.408V42.992C148.051 42.608 147.95 42.2667 147.747 41.968C147.555 41.6587 147.294 41.424 146.963 41.264C146.633 41.0933 146.275 41.008 145.891 41.008C144.985 41.008 144.291 41.376 143.811 42.112L142.675 41.36C143.017 40.8693 143.454 40.4907 143.987 40.224C144.531 39.9467 145.145 39.808 145.827 39.808C146.915 39.808 147.774 40.1013 148.403 40.688C149.033 41.2747 149.347 42.064 149.347 43.056V48H148.051V46.832H147.987C147.731 47.2373 147.385 47.5787 146.947 47.856C146.51 48.1227 146.003 48.256 145.427 48.256ZM145.539 47.056C145.966 47.056 146.371 46.944 146.755 46.72C147.139 46.496 147.449 46.192 147.683 45.808C147.929 45.424 148.051 45.008 148.051 44.56C147.454 44.176 146.766 43.984 145.987 43.984C145.315 43.984 144.777 44.1387 144.371 44.448C143.977 44.7467 143.779 45.1307 143.779 45.6C143.779 46.0267 143.955 46.3787 144.307 46.656C144.659 46.9227 145.07 47.056 145.539 47.056ZM151.211 40.064H152.507V41.248H152.571C152.795 40.8427 153.141 40.5013 153.611 40.224C154.091 39.9467 154.576 39.808 155.067 39.808C155.664 39.808 156.176 39.952 156.603 40.24C157.04 40.5173 157.355 40.9013 157.547 41.392C157.845 40.912 158.229 40.528 158.699 40.24C159.168 39.952 159.707 39.808 160.315 39.808C161.243 39.808 161.941 40.0907 162.411 40.656C162.88 41.2213 163.115 42 163.115 42.992V48H161.755V43.2C161.755 42.4213 161.605 41.8667 161.307 41.536C161.019 41.2053 160.571 41.04 159.963 41.04C159.557 41.04 159.189 41.1627 158.859 41.408C158.539 41.6427 158.288 41.9573 158.107 42.352C157.925 42.7467 157.835 43.1627 157.835 43.6V48H156.491V43.2C156.491 42.4213 156.341 41.8667 156.043 41.536C155.744 41.2053 155.296 41.04 154.699 41.04C154.283 41.04 153.915 41.1627 153.595 41.408C153.275 41.6533 153.024 41.9733 152.843 42.368C152.661 42.7627 152.571 43.184 152.571 43.632V48H151.211V40.064ZM164.975 40.064H166.271V41.232H166.335C166.591 40.8267 166.959 40.4907 167.439 40.224C167.919 39.9467 168.474 39.808 169.103 39.808C169.786 39.808 170.415 39.9947 170.991 40.368C171.567 40.7307 172.026 41.232 172.367 41.872C172.708 42.512 172.879 43.232 172.879 44.032C172.879 44.832 172.708 45.552 172.367 46.192C172.026 46.832 171.567 47.3387 170.991 47.712C170.415 48.0747 169.786 48.256 169.103 48.256C168.474 48.256 167.914 48.1227 167.423 47.856C166.943 47.5787 166.58 47.232 166.335 46.816H166.271L166.335 47.92V51.456H164.975V40.064ZM168.895 47.024C169.364 47.024 169.796 46.9013 170.191 46.656C170.596 46.4107 170.916 46.064 171.151 45.616C171.396 45.1573 171.519 44.6293 171.519 44.032C171.519 43.4347 171.396 42.912 171.151 42.464C170.916 42.0053 170.596 41.6533 170.191 41.408C169.796 41.1627 169.364 41.04 168.895 41.04C168.426 41.04 167.988 41.1627 167.583 41.408C167.188 41.6427 166.868 41.9893 166.623 42.448C166.388 42.896 166.271 43.424 166.271 44.032C166.271 44.6293 166.388 45.1573 166.623 45.616C166.868 46.0747 167.188 46.4267 167.583 46.672C167.988 46.9067 168.426 47.024 168.895 47.024ZM177.264 48.256C176.282 48.256 175.536 47.9733 175.024 47.408C174.522 46.8427 174.272 46.0587 174.272 45.056V40.064H175.632V44.832C175.632 45.6107 175.802 46.1707 176.144 46.512C176.496 46.8533 176.986 47.024 177.616 47.024C178.053 47.024 178.442 46.9013 178.784 46.656C179.125 46.4107 179.386 46.0907 179.568 45.696C179.76 45.3013 179.856 44.8853 179.856 44.448V40.064H181.2V48H179.92V46.816H179.856C179.621 47.2213 179.264 47.5627 178.784 47.84C178.314 48.1173 177.808 48.256 177.264 48.256ZM185.917 48.256C185.074 48.256 184.36 48.0427 183.773 47.616C183.186 47.1893 182.776 46.6613 182.541 46.032L183.757 45.504C183.96 46.0053 184.253 46.3893 184.637 46.656C185.032 46.9227 185.458 47.056 185.917 47.056C186.429 47.056 186.85 46.944 187.181 46.72C187.522 46.496 187.693 46.224 187.693 45.904C187.693 45.5947 187.565 45.3387 187.309 45.136C187.064 44.9333 186.637 44.7573 186.029 44.608L184.941 44.336C184.344 44.1973 183.832 43.9467 183.405 43.584C182.989 43.2213 182.781 42.7413 182.781 42.144C182.781 41.6533 182.92 41.232 183.197 40.88C183.485 40.528 183.864 40.2613 184.333 40.08C184.802 39.8987 185.314 39.808 185.869 39.808C186.552 39.808 187.17 39.968 187.725 40.288C188.29 40.5973 188.69 41.04 188.925 41.616L187.725 42.128C187.554 41.744 187.293 41.4613 186.941 41.28C186.6 41.0987 186.216 41.008 185.789 41.008C185.373 41.008 184.994 41.1093 184.653 41.312C184.322 41.5147 184.157 41.776 184.157 42.096C184.157 42.3733 184.264 42.592 184.477 42.752C184.701 42.912 185.053 43.056 185.533 43.184L186.717 43.472C187.506 43.6747 188.093 43.9787 188.477 44.384C188.872 44.7787 189.069 45.2533 189.069 45.808C189.069 46.2667 188.936 46.6827 188.669 47.056C188.402 47.4293 188.029 47.7227 187.549 47.936C187.069 48.1493 186.525 48.256 185.917 48.256Z" fill="#4285F4"/>
<path d="M193.474 36.544H195.81L198.162 43.456L198.594 44.912H198.722L199.154 43.456L201.634 36.544H203.97L199.778 48H197.522L193.474 36.544ZM205.436 36.544H207.596V48H205.436V36.544ZM210.123 36.544H212.283V48H210.123V36.544ZM217.163 38.592H213.963V36.544H222.523V38.592H219.323V48H217.163V38.592Z" fill="#484F56"/>
</svg>
